SplineFontDB: 3.2
FontName: ICONFONT
FullName: ICONFONT
FamilyName: ICONFONT
Weight: Regular
Copyright: Copyright (c) 2025,heroblineg
UComments: "2025-5-9: Created with FontForge (http://fontforge.org)"
Version: 001.000
ItalicAngle: 0
UnderlinePosition: -100
UnderlineWidth: 50
Ascent: 800
Descent: 200
InvalidEm: 0
LayerCount: 2
Layer: 0 0 "+gMyXYgAA" 1
Layer: 1 0 "+Uk2XYgAA" 0
XUID: [1021 478 1599671974 26675]
FSType: 0
OS2Version: 0
OS2_WeightWidthSlopeOnly: 0
OS2_UseTypoMetrics: 1
CreationTime: 1746739510
ModificationTime: 1746857643
PfmFamily: 17
TTFWeight: 400
TTFWidth: 5
LineGap: 90
VLineGap: 0
OS2TypoAscent: 0
OS2TypoAOffset: 1
OS2TypoDescent: 0
OS2TypoDOffset: 1
OS2TypoLinegap: 90
OS2WinAscent: 0
OS2WinAOffset: 1
OS2WinDescent: 0
OS2WinDOffset: 1
HheadAscent: 0
HheadAOffset: 1
HheadDescent: 0
HheadDOffset: 1
OS2Vendor: 'PfEd'
MarkAttachClasses: 1
DEI: 91125
LangName: 1033
Encoding: ISO8859-1
UnicodeInterp: none
NameList: AGL For New Fonts
DisplaySize: -48
AntiAlias: 1
FitToEm: 0
WinInfo: 0 14 9
BeginPrivate: 0
EndPrivate
TeXData: 1 0 0 346030 173015 115343 543249 1048576 115343 783286 444596 497025 792723 393216 433062 380633 303038 157286 324010 404750 52429 2506097 1059062 262144
BeginChars: 257 35

StartChar: x
Encoding: 120 120 0
Width: 1000
Flags: H
LayerCount: 2
Fore
SplineSet
787.541992188 751.958007812 m 1
 940.875 751.958007812 l 1
 605.875 369.041992188 l 1
 1000 -151.916992188 l 1
 691.416992188 -151.916992188 l 1
 449.75 164.083007812 l 1
 173.166992188 -151.916992188 l 1
 19.75 -151.916992188 l 1
 378.083007812 257.666992188 l 1
 0 751.916992188 l 1
 316.416992188 751.916992188 l 1
 534.875 463.083007812 l 1
 787.541992188 751.958007812 l 1
733.75 -60.1669921875 m 1
 818.708007812 -60.1669921875 l 1
 270.25 665 l 1
 179.083007812 665 l 1
 733.75 -60.1669921875 l 1
EndSplineSet
Validated: 524289
EndChar

StartChar: b
Encoding: 98 98 1
Width: 1000
Flags: H
LayerCount: 2
Fore
SplineSet
742.208007812 606.125 m 1
 777.791992188 606.125 l 2
 840.708007812 603.875 893.166992188 582.041992188 935 540.541992188 c 0
 976.833007812 499.083007812 998.5 446.833007812 1000 383.875 c 2
 1000 77.2080078125 l 2
 998.5 14.2919921875 976.833007812 -38.1669921875 935 -80 c 0
 893.166992188 -121.833007812 840.75 -143.5 777.791992188 -145 c 2
 222.208007812 -145 l 2
 159.291992188 -143.5 106.833007812 -121.833007812 65 -80 c 0
 23.1669921875 -38.1669921875 1.5 14.25 0 77.2080078125 c 2
 0 383.875 l 2
 1.5 446.833007812 23.1669921875 499.083007812 65 540.541992188 c 0
 106.833007812 582.041992188 159.25 603.875 222.208007812 606.125 c 2
 254.458007812 606.125 l 1
 205.541992188 652.791992188 l 2
 195.9453125 662.134765625 189.981445312 675.190429688 189.981445312 689.62890625 c 0
 189.981445312 689.9375 189.994140625 690.233398438 190 690.541992188 c 0
 190 705.375 195.166992188 717.958007812 205.541992188 728.333007812 c 2
 206.666992188 729.458007812 l 2
 217.791992188 739.833007812 230.541992188 745 245 745 c 0
 259.458007812 745 272.208007812 739.833007812 283.333007812 729.458007812 c 2
 402.208007812 615 l 2
 405.166992188 612.041992188 407.791992188 609.083007812 410 606.125 c 2
 587.791992188 606.125 l 2
 589.5390625 609.447265625 591.778320312 612.418945312 594.458007812 615 c 0
 594.48828125 615.034179688 713.333007812 729.458007812 713.333007812 729.458007812 c 2
 724.458007812 739.833007812 737.208007812 745 751.666992188 745 c 0
 766.125 745 779.25 738.708007812 790.375 728.333007812 c 0
 801.5 717.958007812 806.666992188 705.375 806.666992188 690.541992188 c 0
 806.666992188 675.75 801.5 663.166992188 791.125 652.791992188 c 2
 742.208007812 606.125 l 1
222.208007812 498.333007812 m 2
 191.125 497.583007812 165 486.833007812 143.875 466.125 c 0
 122.791992188 445.375 111.833007812 419.041992188 111.125 387.208007812 c 2
 111.125 73.875 l 2
 111.833007812 42.0419921875 122.791992188 15.75 143.875 -5 c 0
 165 -25.75 191.125 -36.5 222.208007812 -37.2080078125 c 2
 777.791992188 -37.2080078125 l 2
 808.875 -36.5 835 -25.75 856.125 -5 c 0
 877.208007812 15.75 888.166992188 42.0419921875 888.875 73.875 c 2
 888.875 387.208007812 l 2
 888.166992188 419.083007812 877.208007812 445.375 856.125 466.125 c 0
 835 486.833007812 808.875 497.583007812 777.791992188 498.333007812 c 2
 222.208007812 498.333007812 l 2
333.333007812 337.208007812 m 0
 348.875 337.208007812 361.833007812 332.041992188 372.208007812 321.666992188 c 0
 382.625 311.291992188 388.166992188 297.958007812 388.875 281.666992188 c 2
 388.875 232.791992188 l 2
 388.166992188 216.5 382.625 203.166992188 372.208007812 192.791992188 c 0
 361.833007812 182.375 348.875 177.208007812 333.333007812 177.208007812 c 0
 317.791992188 177.208007812 304.833007812 182.416992188 294.458007812 192.791992188 c 0
 284.041992188 203.166992188 278.5 216.5 277.791992188 232.791992188 c 2
 277.791992188 281.666992188 l 2
 277.791992188 297.208007812 283.166992188 310.375 293.875 321.125 c 0
 304.625 331.833007812 317.791992188 337.208007812 333.333007812 337.208007812 c 0
666.666992188 337.208007812 m 0
 682.208007812 337.208007812 695.166992188 332.041992188 705.541992188 321.666992188 c 0
 715.958007812 311.291992188 721.5 297.958007812 722.208007812 281.666992188 c 2
 722.208007812 232.791992188 l 2
 721.5 216.5 715.958007812 203.166992188 705.541992188 192.791992188 c 0
 695.166992188 182.375 682.208007812 177.208007812 666.666992188 177.208007812 c 0
 651.125 177.208007812 638.166992188 182.416992188 627.791992188 192.791992188 c 0
 617.375 203.166992188 611.833007812 216.5 611.125 232.791992188 c 2
 611.125 281.666992188 l 2
 611.833007812 297.958007812 617.375 311.291992188 627.791992188 321.666992188 c 0
 638.166992188 332.041992188 651.125 337.208007812 666.666992188 337.208007812 c 0
EndSplineSet
Validated: 524289
EndChar

StartChar: g
Encoding: 103 103 2
Width: 1000
Flags: H
LayerCount: 2
Fore
SplineSet
324.0234375 23.828125 m 0
 324.0234375 19.921875 319.53125 16.796875 313.8671875 16.796875 c 0
 307.421875 16.2109375 302.9296875 19.3359375 302.9296875 23.828125 c 0
 302.9296875 27.734375 307.421875 30.859375 313.0859375 30.859375 c 0
 318.9453125 31.4453125 324.0234375 28.3203125 324.0234375 23.828125 c 0
263.28125 32.6171875 m 0
 264.6484375 36.5234375 270.3125 38.4765625 275.390625 37.109375 c 0
 281.25 35.3515625 284.9609375 30.859375 283.7890625 26.953125 c 0
 282.6171875 23.046875 276.7578125 21.09375 271.6796875 23.046875 c 0
 265.8203125 24.21875 261.9140625 28.7109375 263.28125 32.6171875 c 0
349.609375 35.9375 m 0
 355.2734375 36.5234375 360.546875 33.984375 361.1328125 30.2734375 c 0
 361.71875 26.3671875 357.8125 22.65625 352.1484375 21.2890625 c 0
 346.2890625 19.921875 341.2109375 22.4609375 340.625 26.3671875 c 0
 340.0390625 30.859375 343.9453125 34.5703125 349.609375 35.9375 c 0
478.125 784.375 m 0
 749.0234375 784.375 968.75 578.7109375 968.75 307.8125 c 0
 968.75 91.2109375 836.328125 -94.140625 641.015625 -158.984375 c 0
 616.2109375 -163.4765625 607.2265625 -148.046875 607.2265625 -135.3515625 c 0
 607.2265625 -119.3359375 607.8125 -37.890625 607.8125 27.9296875 c 0
 607.8125 73.828125 592.578125 103.125 574.609375 118.5546875 c 1
 683.7890625 130.859375 798.828125 145.8984375 798.828125 334.375 c 0
 798.828125 387.890625 779.6875 414.84375 748.4375 449.4140625 c 1
 753.515625 462.109375 770.1171875 514.2578125 743.359375 582.03125 c 1
 702.5390625 594.921875 608.59375 529.296875 608.59375 529.296875 c 1
 569.53125 540.234375 527.5390625 545.8984375 485.9375 545.8984375 c 0
 444.3359375 545.8984375 402.34375 540.234375 363.28125 529.296875 c 1
 363.28125 529.296875 269.3359375 594.7265625 228.515625 582.03125 c 1
 201.7578125 514.453125 218.359375 462.109375 223.4375 449.4140625 c 1
 192.1875 415.0390625 177.34375 388.0859375 177.34375 334.375 c 0
 177.34375 146.484375 287.5 130.6640625 396.6796875 118.5546875 c 1
 382.6171875 105.6640625 369.921875 83.984375 365.4296875 52.734375 c 1
 337.5 39.84375 265.8203125 18.1640625 223.046875 93.5546875 c 0
 196.2890625 140.0390625 147.65625 143.9453125 147.65625 143.9453125 c 1
 99.8046875 144.53125 144.53125 113.8671875 144.53125 113.8671875 c 1
 176.5625 99.21875 198.828125 42.3828125 198.828125 42.3828125 c 1
 227.5390625 -45.1171875 364.2578125 -15.8203125 364.2578125 -15.8203125 c 1
 364.2578125 -56.8359375 364.84375 -123.6328125 364.84375 -135.7421875 c 0
 364.84375 -148.4375 356.0546875 -163.8671875 331.0546875 -159.375 c 0
 136.328125 -94.140625 0 91.2109375 0 307.8125 c 0
 0 578.7109375 207.2265625 784.375 478.125 784.375 c 0
189.84375 110.7421875 m 0
 192.3828125 113.28125 196.875 111.9140625 200 108.7890625 c 0
 203.3203125 105.078125 203.90625 100.5859375 201.3671875 98.6328125 c 0
 198.828125 96.09375 194.3359375 97.4609375 191.2109375 100.5859375 c 0
 187.890625 104.296875 187.3046875 108.7890625 189.84375 110.7421875 c 0
168.75 126.5625 m 0
 170.1171875 128.515625 173.2421875 129.1015625 177.1484375 127.9296875 c 0
 181.0546875 125.9765625 183.0078125 122.8515625 181.640625 120.3125 c 0
 180.2734375 117.578125 176.3671875 116.9921875 173.2421875 118.9453125 c 0
 169.3359375 120.8984375 167.3828125 124.0234375 168.75 126.5625 c 0
232.03125 57.03125 m 0
 234.5703125 60.15625 240.4296875 59.5703125 244.7265625 55.078125 c 0
 248.6328125 51.3671875 249.8046875 45.5078125 247.265625 42.96875 c 0
 244.7265625 39.84375 239.0625 40.4296875 234.5703125 44.921875 c 0
 230.078125 48.6328125 228.90625 54.4921875 232.03125 57.03125 c 0
209.765625 85.7421875 m 0
 212.890625 88.28125 217.96875 86.328125 220.703125 81.8359375 c 0
 223.828125 77.34375 223.828125 72.265625 220.703125 69.7265625 c 0
 218.1640625 67.7734375 212.890625 69.7265625 209.765625 74.21875 c 0
 206.640625 78.7109375 206.640625 83.7890625 209.765625 85.7421875 c 0
EndSplineSet
Validated: 524321
EndChar

StartChar: B
Encoding: 66 66 3
Width: 1000
Flags: H
LayerCount: 2
Fore
SplineSet
500 350 m 1
 545.291992188 438.041992188 668.583007812 602.166992188 783.25 683.208007812 c 0
 893.083007812 760.708007812 934.958007812 747.291992188 962.416992188 734.875 c 0
 994.208007812 720.5 1000 671.708007812 1000 642.958007812 c 0
 1000 614.291992188 984.25 407.541992188 974 373.041992188 c 0
 940.041992188 259.041992188 819.291992188 220.5 708.041992188 232.875 c 0
 702.375 233.708007812 696.583007812 234.5 690.75 235.208007812 c 1
 696.462890625 234.297851562 702.244140625 233.516601562 708.041992188 232.875 c 0
 871.041992188 208.708007812 1000 117.458007812 822.208007812 -62.0419921875 c 0
 585.416992188 -268.833007812 539.708007812 -15.6669921875 500 117.458007812 c 1
 460.291992188 -15.6669921875 382.916992188 -278.291992188 174.041992188 -62.0419921875 c 0
 -15.8330078125 149.333007812 128.958007812 208.708007812 291.958007812 232.875 c 0
 297.75 233.541992188 303.5 234.291992188 309.25 235.208007812 c 1
 303.416992188 234.5 297.625 233.708007812 291.958007812 232.875 c 0
 180.708007812 220.541992188 59.9580078125 259.041992188 26 373.041992188 c 0
 15.75 407.583007812 0 614.25 0 643 c 0
 0 671.666992188 5.7919921875 720.5 37.5830078125 734.791992188 c 0
 65.0419921875 747.25 106.916992188 760.666992188 216.75 683.125 c 0
 331.416992188 602.208007812 454.708007812 438.083007812 500 350 c 1
EndSplineSet
Validated: 524325
EndChar

StartChar: y
Encoding: 121 121 4
Width: 1000
Flags: H
LayerCount: 2
Fore
SplineSet
979.083007812 542.25 m 0
 1000 463.75 1000 300 1000 300 c 1
 1000 300 1000 136.25 979.125 57.75 c 0
 967.672851562 14.5791015625 933.766601562 -19.5244140625 890.708007812 -31.25 c 0
 812.708007812 -52.2919921875 500 -52.2919921875 500 -52.2919921875 c 1
 500 -52.2919921875 187.291992188 -52.2919921875 109.333007812 -31.25 c 0
 66.279296875 -19.5166015625 32.3759765625 14.583984375 20.9169921875 57.75 c 0
 0 136.25 0 300 0 300 c 1
 0 300 0 463.75 20.9169921875 542.25 c 0
 32.376953125 585.40234375 66.2587890625 619.49609375 109.291992188 631.25 c 0
 187.291992188 652.291992188 500 652.291992188 500 652.291992188 c 1
 500 652.291992188 812.708007812 652.291992188 890.666992188 631.25 c 0
 933.720703125 619.516601562 967.624023438 585.416015625 979.083007812 542.25 c 0
397.708007812 151.333007812 m 1
 659.083007812 300 l 1
 397.708007812 448.666992188 l 1
 397.708007812 151.333007812 l 1
EndSplineSet
Validated: 524289
EndChar

StartChar: t
Encoding: 116 116 5
Width: 1000
Flags: H
LayerCount: 2
Fore
SplineSet
521.875 799.166992188 m 0
 576.458007812 800 630.625 799.583007812 684.791992188 800 c 0
 688.125 736.25 711.041992188 671.25 757.708007812 626.25 c 0
 804.375 580 870.208007812 558.75 934.375 551.666992188 c 2
 934.375 383.75 l 1
 874.375 385.833007812 813.958007812 398.333007812 759.375 424.166992188 c 0
 735.625 435 713.541992188 448.75 691.875 462.916992188 c 1
 691.458007812 341.25 692.291992188 219.583007812 691.041992188 98.3330078125 c 0
 687.708007812 40 668.541992188 -17.9169921875 634.791992188 -65.8330078125 c 0
 580.208007812 -145.833007812 485.625 -197.916992188 388.541992188 -199.583007812 c 0
 328.958007812 -202.916992188 269.375 -186.666992188 218.541992188 -156.666992188 c 0
 134.375 -107.083007812 75.2080078125 -16.25 66.4580078125 81.25 c 0
 65.625 102.083007812 65.2080078125 122.916992188 66.0419921875 143.333007812 c 0
 73.5419921875 222.5 112.708007812 298.333007812 173.541992188 350 c 0
 242.708007812 410 339.375 438.75 429.791992188 421.666992188 c 0
 430.625 360 428.125 298.333007812 428.125 236.666992188 c 1
 386.875 250 338.541992188 246.25 302.291992188 221.25 c 0
 276.041992188 204.166992188 256.041992188 177.916992188 245.625 148.333007812 c 0
 236.875 127.083007812 239.375 103.75 239.791992188 81.25 c 0
 249.791992188 12.9169921875 315.625 -44.5830078125 385.625 -38.3330078125 c 0
 432.291992188 -37.9169921875 476.875 -10.8330078125 501.041992188 28.75 c 0
 508.958007812 42.5 517.708007812 56.6669921875 518.125 72.9169921875 c 0
 522.291992188 147.5 520.625 221.666992188 521.041992188 296.25 c 0
 521.458007812 464.166992188 520.625 631.666992188 521.875 799.166992188 c 0
EndSplineSet
Validated: 524321
EndChar

StartChar: m
Encoding: 109 109 6
Width: 1000
Flags: H
LayerCount: 2
Fore
SplineSet
371.28125 96.1875 m 0
 327.965820312 96.029296875 290.776367188 122.412109375 273.25390625 153.104492188 c 0
 263.872070312 166.508789062 245.341796875 171.287109375 245.083007812 153.104492188 c 2
 245.083007812 69.154296875 l 2
 245.083007812 35.4287109375 232.936523438 6.25 208.590820312 -18.3544921875 c 0
 184.943359375 -42.2294921875 156.100585938 -54.1669921875 122.01171875 -54.1669921875 c 0
 88.6728515625 -54.1669921875 59.8037109375 -42.2294921875 35.458984375 -18.3291015625 c 0
 11.8369140625 6.25 0 35.4287109375 0 69.154296875 c 2
 0 530.846679688 l 2
 0 556.837890625 7.3134765625 580.373046875 21.916015625 601.453125 c 0
 37.1904296875 623.23828125 56.6767578125 638.362304688 80.32421875 646.7734375 c 0
 93.150390625 651.528320312 107.01953125 654.125976562 121.490234375 654.125976562 c 0
 121.651367188 654.125976562 121.8515625 654.166015625 122.01171875 654.166015625 c 0
 159.563476562 654.166015625 190.861328125 639.407226562 215.87890625 609.889648438 c 2
 340.758789062 463.401367188 l 2
 343.55078125 461.311523438 351.717773438 445.1953125 371.255859375 445.1953125 c 0
 390.845703125 445.1953125 400.072265625 461.311523438 402.837890625 463.427734375 c 2
 526.658203125 609.889648438 l 2
 552.400390625 639.407226562 584.033203125 654.166015625 621.583007812 654.166015625 c 0
 635.487304688 654.166015625 649.395507812 651.709960938 663.299804688 646.7734375 c 0
 686.920898438 638.362304688 706.045898438 623.264648438 720.674804688 601.453125 c 0
 735.946289062 580.373046875 743.595703125 556.837890625 743.595703125 530.846679688 c 2
 743.595703125 69.154296875 l 2
 743.595703125 35.4287109375 731.450195312 6.25 707.104492188 -18.3544921875 c 0
 683.458007812 -42.2294921875 654.587890625 -54.1669921875 620.525390625 -54.1669921875 c 0
 587.158203125 -54.1669921875 558.31640625 -42.2294921875 533.946289062 -18.3291015625 c 0
 510.325195312 6.25 498.512695312 35.4287109375 498.512695312 69.154296875 c 2
 498.512695312 153.104492188 l 2
 496.446289062 176.016601562 476.416992188 161.571289062 469.30859375 153.104492188 c 0
 450.545898438 117.974609375 414.571289062 96.37109375 371.28125 96.1875 c 0
893.625 441.250976562 m 0
 864.420898438 441.250976562 839.395507812 451.4375 818.545898438 471.8125 c 0
 798.387695312 492.883789062 788.30859375 518.177734375 788.30859375 547.6953125 c 0
 788.30859375 577.211914062 798.387695312 602.158203125 818.545898438 622.533203125 c 0
 839.395507812 643.604492188 864.420898438 654.139648438 893.625 654.139648438 c 0
 922.829101562 654.139648438 947.862304688 643.604492188 968.729492188 622.533203125 c 0
 989.575195312 602.158203125 1000 577.211914062 1000 547.6953125 c 0
 1000 518.177734375 989.575195312 492.883789062 968.729492188 471.8125 c 0
 947.862304688 451.4375 922.829101562 441.250976562 893.625 441.250976562 c 0
894.658203125 420.14453125 m 0
 923.862304688 420.14453125 948.553710938 409.609375 968.729492188 388.538085938 c 0
 989.575195312 367.466796875 1000 342.162109375 1000 312.62890625 c 2
 1000 52.279296875 l 2
 1000 22.7626953125 989.575195312 -2.533203125 968.729492188 -23.6044921875 c 0
 948.571289062 -43.9794921875 923.87890625 -54.1669921875 894.658203125 -54.1669921875 c 0
 865.470703125 -54.1669921875 840.446289062 -43.9794921875 819.579101562 -23.6044921875 c 0
 798.733398438 -2.533203125 788.30859375 22.7626953125 788.30859375 52.279296875 c 2
 788.30859375 312.62890625 l 2
 788.30859375 342.145507812 798.733398438 367.450195312 819.579101562 388.538085938 c 0
 840.428710938 409.609375 865.454101562 420.14453125 894.658203125 420.14453125 c 0
EndSplineSet
Validated: 524321
EndChar

StartChar: M
Encoding: 77 77 7
Width: 1000
Flags: H
LayerCount: 2
Fore
SplineSet
969.5 578.625 m 0
 977.458007812 498.833007812 970.583007812 368.916992188 970.5 347.583007812 c 0
 970.5 341.333007812 969.583007812 284.041992188 969.25 278 c 0
 959.416992188 124.5 862.833007812 63.8330078125 761.375 44.5 c 0
 760 44.125 758.375 43.8330078125 756.791992188 43.5 c 0
 692.458007812 31.0830078125 623.541992188 27.75 558.125 25.9169921875 c 0
 542.5 25.5 526.916992188 25.5 511.25 25.5 c 0
 446.25 25.5 381.458007812 33.125 318.25 48.25 c 0
 318.075195312 48.2939453125 317.893554688 48.3193359375 317.705078125 48.3193359375 c 0
 316.486328125 48.3193359375 315.497070312 47.330078125 315.497070312 46.111328125 c 0
 315.497070312 46.07421875 315.498046875 46.037109375 315.5 46 c 0
 317.313476562 25.3125 321.919921875 5.0791015625 328.791992188 -13.7080078125 c 0
 337.583007812 -35.9580078125 368.125 -89.4580078125 481.875 -89.4580078125 c 0
 482.422851562 -89.458984375 482.486328125 -89.41015625 483.034179688 -89.41015625 c 0
 550.157226562 -89.41015625 615.462890625 -81.5673828125 678.083007812 -66.75 c 0
 678.255859375 -66.70703125 678.4375 -66.6845703125 678.623046875 -66.6845703125 c 0
 679.143554688 -66.6845703125 679.622070312 -66.865234375 680 -67.1669921875 c 0
 680.5078125 -67.5634765625 680.833007812 -68.1806640625 680.833007812 -68.8740234375 c 2
 680.833007812 -68.875 l 1
 680.833007812 -68.875 680.834960938 -144.250976562 680.833007812 -144.25 c 1
 680.796875 -144.983398438 680.4296875 -145.630859375 679.875 -146.041992188 c 0
 658.875 -161.166992188 630.333007812 -169.75 605.958007812 -177.416992188 c 0
 595.166992188 -180.791992188 584.25 -183.75 573.208007812 -186.291992188 c 0
 472.916992188 -208.916992188 368.208007812 -203.458007812 270.875 -170.458007812 c 0
 179.916992188 -138.833007812 87.125 -61.2919921875 64.2080078125 31.9169921875 c 0
 51.9169921875 82.3330078125 43.2919921875 133.583007812 38.375 185.25 c 0
 31.2080078125 263 30.625 340.958007812 27.5419921875 419.041992188 c 0
 25.4169921875 473.458007812 26.6669921875 532.833007812 38.2080078125 586.375 c 0
 62.3330078125 695.083007812 161.75 771.166992188 270.625 787.125 c 0
 289.5 789.916992188 325.125 800 490.958007812 800 c 2
 492.208007812 800 l 2
 658 800 729.583007812 789.916992188 748.5 787.125 c 0
 860.458007812 770.708007812 954.916992188 686.041992188 969.5 578.625 c 0
813.333007812 195.5 m 1
 813.458007812 462.416992188 l 2
 813.458007812 517 799.416992188 560.333007812 771.291992188 592.416992188 c 0
 742.25 624.458007812 704.208007812 640.916992188 657.125 640.916992188 c 0
 602.541992188 640.916992188 561.291992188 620.125 533.791992188 578.5 c 2
 507.208007812 534.333007812 l 1
 480.625 578.5 l 2
 453.125 620.083007812 411.833007812 640.916992188 357.208007812 640.916992188 c 0
 310.041992188 640.916992188 272.041992188 624.5 243.041992188 592.416992188 c 0
 214.958007812 560.333007812 200.916992188 517 200.916992188 462.416992188 c 2
 200.916992188 195.5 l 1
 307.458007812 195.5 l 1
 307.458007812 454.583007812 l 2
 307.541992188 509.125 330.708007812 536.958007812 377.041992188 536.958007812 c 0
 428.333007812 536.958007812 454.041992188 504.041992188 454.041992188 439.041992188 c 2
 454.041992188 297.208007812 l 1
 560.125 297.208007812 l 1
 560.125 439 l 2
 560.125 504 585.791992188 536.916992188 637.041992188 536.916992188 c 0
 683.708007812 536.916992188 706.625 509.125 706.625 454.583007812 c 2
 706.625 195.5 l 1
 813.333007812 195.5 l 1
EndSplineSet
Validated: 524321
EndChar

StartChar: d
Encoding: 100 100 8
Width: 1000
Flags: H
LayerCount: 2
Fore
SplineSet
846.541992188 617.924804688 m 1
 846.541992188 617.924804688 846.538085938 617.932617188 846.541992188 617.928710938 c 0
 847.10546875 617.69921875 847.565429688 617.275390625 847.841796875 616.737304688 c 0
 960.770507812 450.633789062 1016.54589844 263.262695312 995.696289062 47.5537109375 c 0
 995.609375 46.6103515625 995.1171875 45.783203125 994.391601562 45.25390625 c 0
 908.858398438 -17.55859375 826.00390625 -55.69140625 744.295898438 -80.970703125 c 0
 744.001953125 -81.060546875 743.692382812 -81.11328125 743.369140625 -81.11328125 c 0
 742.3046875 -81.11328125 741.361328125 -80.5859375 740.787109375 -79.779296875 c 0
 721.908203125 -53.5126953125 704.762695312 -25.8125 689.74609375 3.2705078125 c 0
 689.51953125 3.708984375 689.388671875 4.2080078125 689.388671875 4.734375 c 0
 689.388671875 6.0947265625 690.241210938 7.2578125 691.44140625 7.716796875 c 0
 718.509765625 17.8974609375 744.811523438 30.4482421875 769.483398438 44.8583984375 c 0
 770.41796875 45.4189453125 771.04296875 46.439453125 771.04296875 47.607421875 c 0
 771.04296875 48.6572265625 770.538085938 49.58984375 769.758789062 50.1748046875 c 0
 764.474609375 54.1044921875 759.233398438 58.2333984375 754.224609375 62.3583984375 c 0
 753.694335938 62.7919921875 753.01171875 63.05078125 752.274414062 63.05078125 c 0
 751.801757812 63.05078125 751.354492188 62.9443359375 750.954101562 62.75390625 c 0
 589.229492188 -11.966796875 412.053710938 -11.966796875 248.395507812 62.75390625 c 0
 248.010742188 62.9267578125 247.579101562 63.0224609375 247.129882812 63.0224609375 c 0
 246.3828125 63.0224609375 245.697265625 62.7578125 245.162109375 62.31640625 c 0
 240.158203125 58.1875 234.912109375 54.1044921875 229.670898438 50.1748046875 c 0
 228.899414062 49.5888671875 228.400390625 48.6650390625 228.400390625 47.623046875 c 0
 228.400390625 46.443359375 229.038085938 45.412109375 229.987304688 44.8544921875 c 0
 254.900390625 30.5712890625 280.795898438 17.9912109375 307.99609375 7.6748046875 c 0
 309.20703125 7.23046875 310.069335938 6.0634765625 310.069335938 4.69921875 c 0
 310.069335938 4.185546875 309.946289062 3.7001953125 309.729492188 3.2705078125 c 0
 295.025390625 -25.8544921875 277.87890625 -53.5537109375 258.645507812 -79.8212890625 c 0
 258.0546875 -80.6025390625 257.118164062 -81.10546875 256.063476562 -81.10546875 c 0
 255.7421875 -81.10546875 255.430664062 -81.05859375 255.137695312 -80.970703125 c 0
 173.821289062 -55.6962890625 90.966796875 -17.5625 5.43359375 45.25390625 c 0
 4.720703125 45.810546875 4.2353515625 46.64453125 4.1337890625 47.591796875 c 0
 -13.2919921875 234.170898438 22.224609375 423.091796875 151.866210938 616.775390625 c 0
 152.181640625 617.287109375 152.646484375 617.690429688 153.204101562 617.928710938 c 0
 216.649414062 647.077148438 285.879882812 668.83203125 356.75390625 681.053710938 c 0
 356.919921875 681.081054688 357.084960938 681.09765625 357.2578125 681.09765625 c 0
 358.436523438 681.09765625 359.466796875 680.4609375 360.025390625 679.512695312 c 0
 368.854492188 663.875 378.946289062 643.837890625 385.762695312 627.450195312 c 0
 461.045898438 638.958007812 537.516601562 638.958007812 614.37890625 627.450195312 c 0
 621.196289062 643.479492188 630.93359375 663.875 639.724609375 679.512695312 c 0
 640.25 680.466796875 641.26171875 681.110351562 642.426757812 681.110351562 c 0
 642.62109375 681.110351562 642.811523438 681.092773438 642.99609375 681.05859375 c 0
 713.858398438 668.807617188 783.086914062 647.052734375 846.541992188 617.924804688 c 1
334.166992188 161.200195312 m 0
 384.224609375 161.200195312 424.037109375 206.4375 424.037109375 261.987304688 c 0
 424.825195312 317.145507812 384.62109375 362.779296875 334.170898438 362.779296875 c 0
 284.108398438 362.779296875 244.295898438 317.541992188 244.295898438 261.991210938 c 0
 244.295898438 206.4375 284.895507812 161.200195312 334.166992188 161.200195312 c 0
666.450195312 161.200195312 m 0
 716.900390625 161.200195312 756.31640625 206.4375 756.31640625 261.987304688 c 0
 757.104492188 317.145507812 716.900390625 362.779296875 666.450195312 362.779296875 c 0
 616.387695312 362.779296875 576.579101562 317.541992188 576.579101562 261.991210938 c 0
 576.579101562 206.4375 617.178710938 161.200195312 666.450195312 161.200195312 c 0
EndSplineSet
Validated: 524321
EndChar

StartChar: i
Encoding: 105 105 9
Width: 1000
Flags: H
LayerCount: 2
Fore
SplineSet
437.6953125 524.609375 m 0
 561.9140625 524.609375 662.109375 424.4140625 662.109375 300.1953125 c 0
 662.109375 175.9765625 561.9140625 75.78125 437.6953125 75.78125 c 0
 313.4765625 75.78125 213.28125 175.9765625 213.28125 300.1953125 c 0
 213.28125 424.4140625 313.4765625 524.609375 437.6953125 524.609375 c 0
437.6953125 154.296875 m 0
 517.96875 154.296875 583.59375 219.7265625 583.59375 300.1953125 c 0
 583.59375 380.6640625 518.1640625 446.09375 437.6953125 446.09375 c 0
 357.2265625 446.09375 291.796875 380.6640625 291.796875 300.1953125 c 0
 291.796875 219.7265625 357.421875 154.296875 437.6953125 154.296875 c 0
723.6328125 533.7890625 m 0
 723.6328125 504.6875 700.1953125 481.4453125 671.2890625 481.4453125 c 0
 642.1875 481.4453125 618.9453125 504.8828125 618.9453125 533.7890625 c 0
 618.9453125 562.6953125 642.3828125 586.1328125 671.2890625 586.1328125 c 0
 700.1953125 586.1328125 723.6328125 562.6953125 723.6328125 533.7890625 c 0
872.265625 480.6640625 m 0
 876.3671875 408.3984375 876.3671875 191.9921875 872.265625 119.7265625 c 0
 868.75 49.609375 852.734375 -12.5 801.5625 -63.671875 c 0
 750.390625 -115.0390625 688.28125 -131.0546875 618.1640625 -134.375 c 0
 545.8984375 -138.4765625 329.296875 -138.4765625 257.03125 -134.375 c 0
 186.9140625 -130.859375 125 -114.84375 73.6328125 -63.671875 c 0
 22.265625 -12.5 6.25 49.609375 2.9296875 119.7265625 c 0
 -1.171875 191.9921875 -1.171875 408.59375 2.9296875 480.859375 c 0
 6.4453125 550.9765625 22.265625 613.0859375 73.6328125 664.2578125 c 0
 125 715.4296875 187.109375 731.4453125 257.03125 734.765625 c 0
 329.296875 738.8671875 545.8984375 738.8671875 618.1640625 734.765625 c 0
 688.28125 731.25 750.390625 715.234375 801.5625 664.0625 c 0
 852.9296875 612.890625 868.9453125 550.78125 872.265625 480.6640625 c 0
778.90625 42.1875 m 0
 801.7578125 99.609375 796.484375 236.5234375 796.484375 300.1953125 c 0
 796.484375 363.8671875 801.7578125 500.5859375 778.90625 558.203125 c 0
 763.4765625 596.6796875 733.984375 626.171875 695.703125 641.40625 c 0
 638.28125 664.0625 501.3671875 658.984375 437.6953125 658.984375 c 0
 374.0234375 658.984375 237.3046875 664.2578125 179.6875 641.40625 c 0
 141.2109375 625.9765625 111.71875 596.484375 96.484375 558.203125 c 0
 73.828125 500.78125 78.90625 363.8671875 78.90625 300.1953125 c 0
 78.90625 236.5234375 73.6328125 99.8046875 96.484375 42.1875 c 0
 111.9140625 3.7109375 141.40625 -25.78125 179.6875 -41.015625 c 0
 237.109375 -63.671875 374.0234375 -58.59375 437.6953125 -58.59375 c 0
 501.3671875 -58.59375 638.0859375 -63.8671875 695.703125 -41.015625 c 0
 734.1796875 -25.5859375 763.671875 3.90625 778.90625 42.1875 c 0
EndSplineSet
Validated: 524321
EndChar

StartChar: l
Encoding: 108 108 10
Width: 1000
Flags: H
LayerCount: 2
Fore
SplineSet
820 720 m 2
 875.200195312 720 920 675.200195312 920 620 c 2
 920 -20 l 2
 920 -75.2001953125 875.200195312 -120 820 -120 c 2
 180 -120 l 2
 124.799804688 -120 80 -75.2001953125 80 -20 c 2
 80 620 l 2
 80 675.200195312 124.799804688 720 180 720 c 2
 820 720 l 2
340 400 m 1
 220 400 l 1
 220 20 l 1
 340 20 l 1
 340 400 l 1
220 510.599609375 m 0
 220 482.599609375 244 460 280 460 c 0
 317.599609375 460 340 482.599609375 340 510.599609375 c 0
 338.599609375 538.599609375 316 560 280 560 c 0
 244 560 220 538.599609375 220 510.599609375 c 0
780 20 m 1
 780 234.799804688 l 2
 780 345.400390625 715.599609375 400 636.200195312 400 c 0
 558.599609375 400 520 348.799804688 520 348.799804688 c 1
 520 400 l 1
 400 400 l 1
 400 20 l 1
 520 20 l 1
 520 20 520 201.799804688 520 220 c 0
 520 259.599609375 540 300.799804688 588.400390625 300.799804688 c 2
 590 300.799804688 l 2
 640 300 660 260 660 220 c 0
 660 205.200195312 660 20 660 20 c 1
 780 20 l 1
EndSplineSet
Validated: 524289
EndChar

StartChar: G
Encoding: 71 71 11
Width: 1000
Flags: H
LayerCount: 2
Fore
SplineSet
820.958007812 800 m 0
 1029 800 808.041992188 503.708007812 690.958007812 503.708007812 c 0
 574 503.708007812 613.041992188 800 820.958007812 800 c 0
499.583007812 763.666992188 m 0
 602 763.291992188 536.041992188 536.75 475.666992188 540.5 c 0
 413.333007812 544.25 372.041992188 747.833007812 489.166992188 763 c 0
 492.805664062 763.472005208 496.277669271 763.694335938 499.583007812 763.666992188 c 0
296.791992188 683.208007812 m 1
 296.791992188 683.166992188 l 1
 369.791992188 684.791992188 363.5 500.166992188 314.833007812 490.166992188 c 0
 262.125 479.458007812 182.333007812 639.583007812 276.458007812 678.458007812 c 0
 282.715820312 681.173828125 289.627929688 682.853515625 296.791992188 683.208007812 c 1
146.791992188 557.541992188 m 0
 204.083007812 555.583007812 228.75 407.375 190 390.291992188 c 0
 145.666992188 370.708007812 45.0830078125 496.583007812 120.375 548.583007812 c 0
 127.702148438 554.169921875 136.880859375 557.516601562 146.791992188 557.541992188 c 0
564.791992188 461.333007812 m 2
 564.791992188 461.375 l 2
 667.208007812 462.25 751.666992188 430.5 762.625 365.5 c 0
 796.416992188 165.083007812 284.708007812 91.9169921875 477.333007812 -54.75 c 0
 537.875 -100.875 599.666992188 -65.625 590.291992188 5.8330078125 c 0
 582.5 65.5 799.958007812 101.666992188 782.916992188 11.5419921875 c 0
 760.625 -106.666992188 641.458007812 -200 538.125 -200 c 0
 328.125 -200 126.833007812 44.1669921875 166.166992188 220.333007812 c 0
 201.625 378.916992188 405 459.958007812 564.791992188 461.333007812 c 2
EndSplineSet
Validated: 524321
EndChar

StartChar: f
Encoding: 102 102 12
Width: 1000
Flags: H
LayerCount: 2
Fore
SplineSet
379.208007812 -187.125 m 1
 161.416992188 -133.083007812 0 63.6669921875 0 298.166992188 c 0
 0 574.291992188 223.875 798.166992188 500 798.166992188 c 0
 776.125 798.166992188 1000 574.291992188 1000 298.166992188 c 0
 1000 42.5419921875 808.166992188 -168.25 560.583007812 -198.166992188 c 1
 560.583007812 145.375 l 1
 695.833007812 145.375 l 1
 707.791992188 210.541992188 l 1
 723.875 298.166992188 l 1
 560.583007812 298.166992188 l 1
 560.583007812 352.208007812 l 2
 560.583007812 383.75 565.416992188 407.708007812 576.166992188 425.208007812 c 0
 583.01171875 436.30859375 592.745117188 445.248046875 604.458007812 451.125 c 0
 621.791992188 460 644.791992188 464 674.25 464 c 0
 674.780273438 464.000976562 674.790039062 464.006835938 675.3203125 464.006835938 c 0
 685.173828125 464.006835938 694.998046875 463.87890625 704.791992188 463.625 c 0
 714.032226562 463.466796875 722.940429688 462.969726562 732 462.125 c 1
 732 462.125 731.814453125 600.703125 732 600.666992188 c 1
 716.57421875 604.375976562 700.580078125 607.1328125 684.458007812 608.791992188 c 0
 663.083007812 611.333007812 640 613.083007812 623.291992188 613.083007812 c 0
 456.208007812 613.083007812 379.208007812 534.208007812 379.208007812 364 c 2
 379.208007812 298.166992188 l 1
 276.125 298.166992188 l 1
 276.125 145.375 l 1
 379.208007812 145.375 l 1
 379.208007812 -187.125 l 1
EndSplineSet
Validated: 524321
EndChar

StartChar: s
Encoding: 115 115 13
Width: 1000
Flags: H
LayerCount: 2
Fore
SplineSet
499.125 800 m 0
 775.208007812 800 999.083007812 576.125 999.083007812 300 c 0
 999.083007812 23.875 775.25 -200 499.125 -200 c 0
 270.25 -200 77.5830078125 -46.125 18.1669921875 163.75 c 1
 210.041992188 84.2919921875 l 2
 223.166992188 19.5419921875 280.708007812 -29.3330078125 348.833007812 -29.3330078125 c 0
 426.958007812 -29.3330078125 490.083007812 34.0419921875 490.083007812 112.166992188 c 0
 490.083007812 114.416992188 489.916992188 116.625 489.916992188 118.791992188 c 2
 659.75 240.083007812 l 1
 664.125 240.083007812 l 2
 768.041992188 240.083007812 852.625 324.625 852.625 428.625 c 0
 852.625 532.625 768.041992188 617.25 664.125 617.25 c 0
 560.125 617.25 475.625 532.708007812 475.625 428.75 c 2
 475.625 426.291992188 l 1
 356.416992188 253.708007812 l 2
 353.791992188 253.791992188 351.208007812 253.958007812 348.583007812 253.958007812 c 0
 319.041992188 253.958007812 291.625 244.833007812 268.916992188 229.375 c 2
 0.9169921875 340.125 l 1
 21.2919921875 597.5 236.583007812 800 499.125 800 c 0
314.166992188 41.25 m 1
 314.208007812 41.25 l 2
 354.083007812 24.6669921875 399.916992188 43.5419921875 416.458007812 83.4169921875 c 0
 433.125 123.208007812 414.25 169.041992188 374.416992188 185.708007812 c 2
 310.958007812 211.958007812 l 1
 335.458007812 221.083007812 363.208007812 221.541992188 389.208007812 210.708007812 c 0
 415.333007812 199.791992188 435.791992188 179.333007812 446.583007812 153.083007812 c 0
 457.375 126.833007812 457.333007812 98.125 446.375 71.875 c 0
 423.916992188 17.75 361.583007812 -7.875 307.541992188 14.5830078125 c 0
 282.541992188 25.0419921875 263.708007812 44.0419921875 252.791992188 66.6669921875 c 1
 314.166992188 41.25 l 1
789.791992188 428.875 m 0
 789.791992188 359.5 733.458007812 303.25 664.166992188 303.25 c 0
 594.791992188 303.25 538.541992188 359.5 538.541992188 428.875 c 0
 538.541992188 498.125 594.791992188 554.5 664.166992188 554.5 c 0
 733.416992188 554.5 789.791992188 498.125 789.791992188 428.875 c 0
570.083007812 429.083007812 m 0
 570.083007812 376.958007812 612.25 334.708007812 664.458007812 334.708007812 c 0
 716.5 334.708007812 758.875 376.958007812 758.875 429.083007812 c 0
 758.875 481.25 716.5 523.5 664.458007812 523.5 c 0
 612.291992188 523.5 570.083007812 481.25 570.083007812 429.083007812 c 0
EndSplineSet
Validated: 524321
EndChar

StartChar: S
Encoding: 83 83 14
Width: 1000
Flags: H
LayerCount: 2
Fore
SplineSet
210.083007812 168.125 m 2
 209.96875 110.200195312 162.9921875 63.18359375 105.083007812 63 c 0
 47.1357421875 63.1376953125 0.1142578125 110.171875 0 168.125 c 0
 0.16015625 226.030273438 47.16796875 273.010742188 105.083007812 273.125 c 1
 105.079101562 273.119140625 210.083007812 273.125 210.083007812 273.125 c 1
 210.083007812 168.125 l 2
263.041992188 168.125 m 0
 263.202148438 226.015625 310.1875 272.987304688 368.083007812 273.125 c 0
 425.979492188 272.987304688 472.96484375 226.015625 473.125 168.125 c 1
 473.120117188 168.130859375 473.125 -94.9169921875 473.125 -94.9169921875 c 2
 472.987304688 -152.8359375 425.997070312 -199.83984375 368.083007812 -200 c 0
 310.168945312 -199.83984375 263.178710938 -152.8359375 263.041992188 -94.9169921875 c 1
 263.046875 -94.921875 263.041992188 168.125 263.041992188 168.125 c 0
368.083007812 589.916992188 m 2
 310.197265625 590.077148438 263.224609375 637.036132812 263.041992188 694.916992188 c 0
 263.178710938 752.8359375 310.168945312 799.83984375 368.083007812 800 c 0
 425.997070312 799.83984375 472.987304688 752.8359375 473.125 694.916992188 c 1
 473.119140625 694.921875 473.125 589.916992188 473.125 589.916992188 c 1
 368.083007812 589.916992188 l 2
368.083007812 536.958007812 m 2
 425.983398438 536.797851562 472.96484375 489.81640625 473.125 431.916992188 c 0
 472.96484375 374.016601562 425.983398438 327.03515625 368.083007812 326.875 c 1
 368.088867188 326.880859375 105.083007812 326.875 105.083007812 326.875 c 2
 47.1640625 327.012695312 0.16015625 374.002929688 0 431.916992188 c 0
 0.16015625 489.831054688 47.1640625 536.821289062 105.083007812 536.958007812 c 1
 105.078125 536.953125 368.083007812 536.958007812 368.083007812 536.958007812 c 2
789.833007812 431.916992188 m 1
 789.993164062 489.831054688 836.997070312 536.821289062 894.916992188 536.958007812 c 0
 952.8359375 536.821289062 999.83984375 489.831054688 1000 431.916992188 c 0
 999.83984375 374.002929688 952.8359375 327.012695312 894.916992188 326.875 c 1
 894.921875 326.880859375 789.833007812 326.875 789.833007812 326.875 c 1
 789.833007812 431.916992188 l 1
737 431.916992188 m 2
 736.83984375 373.98828125 689.813476562 326.989257812 631.875 326.875 c 0
 573.984375 327.03515625 527.012695312 374.020507812 526.875 431.916992188 c 1
 526.880859375 431.912109375 526.875 694.916992188 526.875 694.916992188 c 2
 526.989257812 752.83203125 573.969726562 799.83984375 631.875 800 c 0
 689.828125 799.885742188 736.862304688 752.864257812 737 694.916992188 c 1
 736.99609375 694.921875 737 431.916992188 737 431.916992188 c 2
631.875 10.1669921875 m 1
 689.828125 10.0517578125 736.862304688 -36.96875 737 -94.9169921875 c 0
 736.862304688 -152.864257812 689.828125 -199.885742188 631.875 -200 c 0
 573.969726562 -199.83984375 526.989257812 -152.83203125 526.875 -94.9169921875 c 1
 526.880859375 -94.9208984375 526.875 10.1669921875 526.875 10.1669921875 c 1
 631.875 10.1669921875 l 1
631.875 63 m 0
 573.956054688 63.16015625 526.966796875 110.189453125 526.875 168.125 c 0
 527.012695312 226.012695312 573.987304688 272.987304688 631.875 273.125 c 1
 631.870117188 273.120117188 894.916992188 273.125 894.916992188 273.125 c 2
 952.83203125 273.010742188 999.83984375 226.030273438 1000 168.125 c 0
 999.885742188 110.171875 952.864257812 63.1376953125 894.916992188 63 c 1
 894.921875 63.00390625 631.875 63 631.875 63 c 0
EndSplineSet
Validated: 524321
EndChar

StartChar: A
Encoding: 65 65 15
Width: 1000
Flags: H
LayerCount: 2
Fore
SplineSet
440.625 391.041992188 m 0
 440.625 418.25 466.625 439.416992188 500.166992188 439.416992188 c 0
 533.708007812 439.416992188 559.708007812 418.25 559.708007812 391.083007812 c 0
 559.708007812 363.875 533.708007812 342.666992188 500.166992188 342.666992188 c 0
 466.625 342.666992188 440.625 363.875 440.625 391.041992188 c 0
671.125 800 m 0
 671.329101562 800.002929688 671.5703125 799.974609375 671.774414062 799.974609375 c 0
 679.729492188 799.974609375 687.232421875 798.02734375 693.833007812 794.583007812 c 0
 710.041992188 786.125 719.875 769.791992188 720.625 744.583007812 c 0
 721 733.25 720.916992188 710.541992188 720.791992188 685.666992188 c 0
 720.666992188 674.45703125 720.600585938 664.749023438 720.600585938 653.510742188 c 0
 720.600585938 636.236328125 720.748046875 618.99609375 721.041992188 601.791992188 c 0
 722.166992188 561.791992188 725.208007812 537 741.75 502.625 c 0
 755.75 473.041992188 778.25 422.625 780.5 356.25 c 0
 782.083007812 311.5 779.5 279.916992188 777.166992188 251.5 c 0
 775 225.083007812 773.083007812 201.458007812 774.916992188 172.333007812 c 0
 777.916992188 125.958007812 794.833007812 103.083007812 819.375 86.2919921875 c 2
 820.625 85.4580078125 l 2
 852.583007812 63.6669921875 869.666992188 52 879.333007812 27.5419921875 c 0
 886.125 9.9580078125 886.083007812 -15.1669921875 865.333007812 -26 c 0
 852.5 -32.7919921875 837.5 -31.6669921875 821.291992188 -24.875 c 0
 818.166992188 -23.5419921875 814.958007812 -22.0419921875 811.833007812 -20.5419921875 c 0
 802.666992188 -16.1669921875 793.666992188 -11.8330078125 784.666992188 -12.4169921875 c 0
 775.625 -12.8330078125 768.083007812 -18 766.583007812 -34.375 c 0
 765.083007812 -50.7919921875 757.916992188 -58.0830078125 746.25 -58.0830078125 c 0
 736.833007812 -58.0830078125 728.166992188 -51.2080078125 721.416992188 -32.8330078125 c 0
 720.166992188 -29.4169921875 719.083007812 -26.0830078125 718 -22.9169921875 c 0
 712.875 -7.5 708.916992188 4.2919921875 699.541992188 3.9580078125 c 0
 687.833007812 3.5419921875 684.833007812 -10.0830078125 684.083007812 -29.25 c 0
 682.958007812 -56.8330078125 692.833007812 -77.9580078125 712 -96.8330078125 c 0
 734.25 -118.75 750.75 -138.791992188 744.708007812 -165.583007812 c 0
 740.583007812 -184.375 721 -196.791992188 690.083007812 -198.333007812 c 0
 658.833007812 -200 607.583007812 -200.416992188 572.166992188 -199.583007812 c 0
 539 -198.375 520.166992188 -183.208007812 516 -163.208007812 c 0
 513.416992188 -150.916992188 515.833007812 -142.833007812 518.083007812 -135.041992188 c 0
 520.083007812 -128.333007812 521.916992188 -121.916992188 520.5 -113.25 c 0
 519 -102.833007812 509.625 -98.4169921875 499.833007812 -98.4169921875 c 0
 490.041992188 -98.4169921875 480.958007812 -102.833007812 479.083007812 -113.25 c 0
 477.458007812 -122.125 479.458007812 -128.625 481.458007812 -135.458007812 c 0
 483.708007812 -143.125 486 -151.125 483.625 -163.208007812 c 0
 479.875 -183.583007812 460.666992188 -198.791992188 427.458007812 -199.625 c 0
 392.041992188 -200.375 340.791992188 -200 309.125 -198.791992188 c 0
 278.291992188 -197.208007812 258.708007812 -184.833007812 254.541992188 -165.958007812 c 0
 248.5 -139.25 265.083007812 -118.791992188 287.25 -97.2080078125 c 0
 306.541992188 -78.4169921875 316.291992188 -57.1669921875 315.166992188 -29.5830078125 c 0
 314.375 -10.4169921875 311.833007812 3.0830078125 299.75 3.5 c 0
 290.458007812 3.5 286.541992188 -8.125 281.416992188 -23.1669921875 c 2
 277.916992188 -33.25 l 2
 271.125 -51.625 262.416992188 -58.4169921875 253 -58.4169921875 c 0
 241.333007812 -58.4169921875 234.166992188 -51.5830078125 232.666992188 -34.7919921875 c 0
 231.541992188 -18.7919921875 224 -13.25 214.583007812 -12.8330078125 c 0
 205.583007812 -12.2080078125 196.583007812 -16.5419921875 187.416992188 -20.9580078125 c 0
 184.291992188 -22.4169921875 181.166992188 -23.9580078125 178.041992188 -25.2919921875 c 0
 162.208007812 -32.0830078125 146.75 -33.25 133.958007812 -26.4169921875 c 0
 113.958007812 -15.625 113.958007812 9.5 120.75 27.125 c 0
 130.208007812 51.0830078125 147.083007812 62.75 177.416992188 83.7080078125 c 2
 180.666992188 85.875 l 2
 205.083007812 102.75 222.083007812 125.541992188 225.083007812 171.916992188 c 0
 226.916992188 201 225 224.666992188 222.833007812 251.083007812 c 0
 220.329101562 277.181640625 219.0703125 302.380859375 219.0703125 329.130859375 c 0
 219.0703125 338.09375 219.21484375 347.022460938 219.5 355.916992188 c 0
 221.791992188 422.666992188 244.333007812 472.666992188 258.291992188 502.25 c 0
 274.833007812 537.041992188 277.833007812 561.333007812 278.958007812 601.333007812 c 0
 279.583007812 621.333007812 279.458007812 654.833007812 279.291992188 685.25 c 0
 279.189453125 694.196289062 279.137695312 702.071289062 279.137695312 711.041992188 c 0
 279.137695312 722.2265625 279.216796875 733.393554688 279.375 744.541992188 c 0
 280.541992188 770.166992188 289.958007812 786.541992188 306.541992188 794.541992188 c 0
 326.541992188 804.125 347.583007812 800.958007812 365.708007812 780.541992188 c 0
 381.875 761.333007812 412.041992188 727.291992188 432.375 707.708007812 c 0
 459.5 681.333007812 476.5 675.833007812 500.25 675.833007812 c 0
 524 675.833007812 541.291992188 681.708007812 568 707.708007812 c 0
 588.375 727.708007812 618.125 761.375 634.666992188 780.541992188 c 0
 646 793.541992188 658.5 799.666992188 671.125 800 c 0
354.458007812 505 m 1
 354.5 505 l 1
 340.833007812 504.25 330.25 492.125 330.25 477.833007812 c 0
 330.23828125 477.506835938 330.244140625 477.194335938 330.244140625 476.866210938 c 0
 330.244140625 462.612304688 341.627929688 450.998046875 355.791992188 450.625 c 0
 370.166992188 450.625 381.416992188 463.041992188 381.416992188 477.833007812 c 0
 381.416992188 493.041992188 369.75 505 355.791992188 505 c 2
 354.458007812 505 l 1
643.166992188 505 m 2
 629.458007812 504.25 618.916992188 492.125 618.916992188 477.833007812 c 0
 618.904296875 477.5078125 618.909179688 477.196289062 618.909179688 476.868164062 c 0
 618.909179688 462.586914062 630.338867188 450.954101562 644.541992188 450.625 c 0
 658.833007812 450.625 670.083007812 463.041992188 670.083007812 477.833007812 c 0
 670.083007812 493.041992188 658.458007812 505 644.541992188 505 c 2
 643.166992188 505 l 2
499.75 453.083007812 m 0
 439.458007812 453.083007812 396.583007812 438.666992188 354.75 401.083007812 c 0
 326.125 375.5 307.625 323.875 329.083007812 285.125 c 0
 340.731445312 264.591796875 361.80078125 250.149414062 386.375 247.5 c 0
 419.541992188 244.291992188 440.666992188 257.125 453.875 272.708007812 c 0
 466.666992188 287.541992188 480.25 301.458007812 499.416992188 301.458007812 c 0
 518.625 301.458007812 532.208007812 287.5 545 272.666992188 c 0
 558.208007812 257.083007812 578.916992188 244.291992188 612.458007812 247.5 c 0
 637.708007812 249.875 658.833007812 265.541992188 669.75 285.125 c 0
 692.375 323.5 673.5 375.083007812 644.875 401.083007812 c 0
 603.416992188 438.666992188 560.041992188 453.083007812 499.75 453.083007812 c 0
500.166992188 191.5 m 0
 434.25 191.5 380.708007812 134.75 380.708007812 64.75 c 0
 380.708007812 -5.25 434.25 -62.0419921875 500.166992188 -62.0419921875 c 0
 566.125 -62.0419921875 619.625 -5.25 619.625 64.75 c 0
 619.625 134.708007812 565.75 191.5 500.166992188 191.5 c 0
EndSplineSet
Validated: 524325
EndChar

StartChar: a
Encoding: 97 97 16
Width: 1000
Flags: H
LayerCount: 2
Fore
SplineSet
1.875 49.1669921875 m 1
 4.875 54 9.6669921875 54.3330078125 16.375 50.0830078125 c 0
 167.875 -37.8330078125 332.791992188 -81.8330078125 510.958007812 -81.8330078125 c 0
 629.791992188 -81.8330078125 747.125 -59.625 862.916992188 -15.375 c 2
 876.041992188 -9.5419921875 l 2
 881.791992188 -7.0419921875 885.791992188 -5.375 888.25 -4.125 c 0
 897.666992188 -0.4580078125 904.5 -2.2080078125 910.125 -9.5419921875 c 0
 915.125 -16.7919921875 913.875 -23.5419921875 905.125 -29.5419921875 c 0
 894.458007812 -37.4580078125 880.125 -46.625 863.208007812 -56.7919921875 c 0
 811.375 -87.75 753.208007812 -111.625 688.833007812 -128.708007812 c 0
 627.7265625 -145.216796875 563.471679688 -154.024414062 497.176757812 -154.024414062 c 0
 403.956054688 -154.024414062 314.61328125 -136.41796875 232.541992188 -104.666992188 c 0
 148.630859375 -71.791015625 72.19921875 -24.322265625 6.2919921875 34.9169921875 c 0
 2.125 38 -0 41.1669921875 -0 44.0830078125 c 0
 -0 46.0419921875 0.875 47.8330078125 2.125 49.5 c 1
 1.875 49.1669921875 l 1
275.416992188 308.25 m 2
 275.416992188 350.125 285.708007812 385.875 306.375 415.625 c 0
 327 445.208007812 355.125 467.708007812 391.375 482.916992188 c 0
 424.541992188 496.875 464.541992188 506.875 512.708007812 512.916992188 c 0
 528.958007812 514.833007812 555.75 517.208007812 592.708007812 520.166992188 c 2
 592.708007812 535.583007812 l 2
 592.708007812 574.333007812 588.333007812 600.5 580.208007812 613.708007812 c 0
 567.625 631.625 547.708007812 640.791992188 520.208007812 640.791992188 c 2
 512.625 640.791992188 l 2
 492.625 638.875 475.291992188 632.625 460.708007812 621.625 c 0
 446.125 610.375 436.75 595.375 432.583007812 575.958007812 c 0
 430.083007812 563.458007812 424 556.583007812 414.458007812 554.708007812 c 2
 309.458007812 567.833007812 l 2
 299.125 570.333007812 293.958007812 575.333007812 293.958007812 584.083007812 c 0
 293.958007812 586 294.25 587.833007812 294.875 590.333007812 c 0
 305.166992188 644.083007812 330.5 684.083007812 370.708007812 710.333007812 c 0
 411.375 736 458.208007812 750.958007812 511.958007812 754.083007812 c 2
 534.458007812 754.083007812 l 2
 603.208007812 754.083007812 657.666992188 736 696.458007812 700.333007812 c 0
 702.083007812 694.083007812 707.708007812 687.833007812 713.333007812 680.333007812 c 0
 718.333007812 673.458007812 722.666992188 667.25 725.125 661.583007812 c 0
 728.25 656 731.375 647.833007812 733.25 637.833007812 c 0
 735.75 627.25 737.625 620.333007812 738.875 616.583007812 c 0
 740.125 612.25 741.458007812 604.083007812 742.041992188 590.958007812 c 0
 742.458007812 577.916992188 742.875 570.416992188 742.875 567.916992188 c 2
 742.875 347.916992188 l 2
 742.875 332.25 745.375 317.916992188 749.75 304.75 c 0
 754.125 291.708007812 758.5 282.25 762.875 276.666992188 c 2
 784.125 248.583007812 l 2
 787.875 242.916992188 789.791992188 237.916992188 789.791992188 233.583007812 c 0
 789.791992188 228.583007812 787.291992188 224.166992188 782.291992188 220.5 c 0
 732.291992188 176.75 704.791992188 153 700.5 149.25 c 0
 693.625 143.625 684.875 143 674.25 147.375 c 0
 666.482421875 153.870117188 659.267578125 160.672851562 652.333007812 168.041992188 c 0
 652.17578125 168.190429688 639.416992188 182.5 639.416992188 182.5 c 2
 634.83203125 188.232421875 630.470703125 194.010742188 626.208007812 200 c 0
 626.143554688 200.0859375 613.708007812 218.125 613.708007812 218.125 c 1
 579.958007812 181.208007812 546.916992188 158.125 513.708007812 148.75 c 0
 493.125 142.5 468.166992188 139.291992188 437.458007812 139.291992188 c 0
 391.208007812 139.291992188 352.458007812 153.583007812 322.458007812 182.375 c 0
 292.458007812 211.125 277.458007812 251.75 277.458007812 304.875 c 2
 275.375 308.041992188 l 1
 275.416992188 308.25 l 2
431.791992188 326.5 m 2
 431.791992188 302.916992188 437.625 284 449.5 269.666992188 c 0
 461.375 255.5 477.625 248.333007812 497.625 248.333007812 c 0
 499.5 248.333007812 502.041992188 248.625 505.75 249.166992188 c 0
 509.5 249.833007812 511.333007812 250.125 512.666992188 250.125 c 0
 538.25 256.791992188 557.666992188 273.166992188 572 299.208007812 c 0
 578.875 310.875 583.875 323.375 587 337.125 c 0
 590.75 350.458007812 592 361.708007812 592.625 370.458007812 c 0
 593.25 378.583007812 593.25 392.958007812 593.25 412.333007812 c 2
 593.25 434.833007812 l 1
 558.25 434.833007812 531.416992188 432.333007812 513.25 427.333007812 c 0
 460.125 412.333007812 433.25 378.583007812 433.25 326.083007812 c 1
 431.791992188 326.916992188 l 1
 431.791992188 326.5 l 2
813.541992188 33.7080078125 m 2
 814.791992188 36.2080078125 816.666992188 38.2919921875 819.041992188 40.7919921875 c 0
 834.125 50.9169921875 848.791992188 57.875 862.791992188 61.625 c 0
 884.395507812 67.1103515625 906.923828125 70.54296875 929.958007812 71.625 c 0
 935.791992188 72.125 941.625 71.625 947.041992188 70.375 c 0
 974.125 67.875 990.791992188 63.375 995.875 56.625 c 0
 998.5 52.875 1000 47.125 1000 40.375 c 2
 1000 34.125 l 2
 1000 12.875 993.791992188 -12.125 982.333007812 -40.875 c 0
 970.75 -69.625 954.666992188 -92.875 934.166992188 -110.875 c 0
 931.125 -113.375 928.333007812 -114.625 925.958007812 -114.625 c 0
 924.708007812 -114.625 923.458007812 -114.625 922.208007812 -114.125 c 0
 918.458007812 -112.291992188 917.75 -109.125 919.541992188 -104.125 c 0
 942.041992188 -51.625 953.125 -14.8330078125 953.125 5.875 c 0
 953.125 12.125 951.875 17.125 949.5 20.2080078125 c 0
 943.458007812 27.125 926.583007812 30.9169921875 898.5 30.9169921875 c 0
 888.375 30.9169921875 876.291992188 30.25 862.25 29 c 0
 847.125 27.125 833.083007812 25.25 820.583007812 23.375 c 0
 816.833007812 23.375 814.416992188 23.9580078125 813.083007812 25.2080078125 c 0
 811.833007812 26.4580078125 811.583007812 27.1669921875 812.25 28.4169921875 c 0
 812.25 29.125 812.5 29.6669921875 813.083007812 31.0419921875 c 2
 813.083007812 33.5419921875 l 1
 813.541992188 33.7080078125 l 2
EndSplineSet
Validated: 524289
EndChar

StartChar: u
Encoding: 117 117 17
Width: 1000
Flags: HW
LayerCount: 2
Fore
SplineSet
733.75 781.041992188 m 0
 812.16796875 781.041992188 875.833007812 717.375976562 875.833007812 638.958007812 c 0
 875.833007812 560.540039062 812.16796875 496.875 733.75 496.875 c 0
 655.33203125 496.875 591.666992188 560.540039062 591.666992188 638.958007812 c 0
 591.666992188 717.375976562 655.33203125 781.041992188 733.75 781.041992188 c 0
538.333007812 766.666992188 m 0
 549.71484375 766.600585938 560.620117188 766.1328125 571.791992188 765.25 c 1
 546.817382812 733.162109375 531.033203125 693.184570312 528.666992188 650 c 0
 413.02734375 648.022460938 311.203125 589.610351562 249.708007812 500.791992188 c 0
 218.459960938 520.141601562 181.4140625 531.458984375 142 531.5 c 0
 141.873046875 531.5 141.900390625 531.50390625 141.7734375 531.50390625 c 0
 138.213867188 531.50390625 134.677734375 531.404296875 131.166992188 531.208007812 c 1
 214.041992188 677.458007812 371.791992188 767.625 538.333007812 766.666992188 c 0
922.75 558.583007812 m 1
 971.396484375 485.1171875 999.833984375 396.2421875 999.833984375 301.612304688 c 0
 999.833984375 192.697265625 962.293945312 92.4814453125 899.458007812 13.2080078125 c 1
 888.365234375 55.37109375 864.240234375 92.2119140625 831.458007812 119.041992188 c 0
 864.219726562 172.13671875 883.134765625 235.3984375 883.134765625 302.313476562 c 0
 883.134765625 361.059570312 868.560546875 416.4296875 842.833007812 465 c 0
 878.322265625 487.19140625 906.2265625 519.677734375 922.75 558.583007812 c 1
142.083007812 469.5 m 1
 142.083007812 469.541992188 l 1
 220.500976562 469.541992188 284.166992188 405.875976562 284.166992188 327.458007812 c 0
 284.166992188 249.040039062 220.500976562 185.375 142.083007812 185.375 c 0
 63.6796875 185.375 0.0234375 249.018554688 0 327.416992188 c 0
 0 405.834960938 63.6650390625 469.5 142.083007812 469.5 c 1
226.541992188 141.75 m 2
 226.541992188 141.75 226.577148438 142.146484375 226.541992188 141.791992188 c 0
 273.448242188 50.779296875 359.58203125 -16.4404296875 462.5 -38.2080078125 c 0
 473.876953125 -40.6474609375 485.580078125 -42.5615234375 497.333007812 -43.875 c 0
 498.333984375 -88.36328125 513.748046875 -129.586914062 538.958007812 -162.625 c 1
 537.984375 -162.630859375 537.384765625 -162.622070312 536.409179688 -162.622070312 c 0
 502.670898438 -162.622070312 469.762695312 -159.044921875 438.041992188 -152.25 c 0
 286.436523438 -120.146484375 162.01953125 -13.96875 105.083007812 126.833007812 c 1
 117.122070312 124.622070312 129.522460938 123.57421875 142.196289062 123.57421875 c 0
 172.26171875 123.57421875 200.8203125 130.076171875 226.541992188 141.75 c 2
701.75 103.083007812 m 0
 780.16796875 103.083007812 843.833007812 39.41796875 843.833007812 -39 c 0
 843.833007812 -117.41796875 780.16796875 -181.083007812 701.75 -181.083007812 c 0
 623.33203125 -181.083007812 559.666992188 -117.41796875 559.666992188 -39 c 0
 559.666992188 39.41796875 623.33203125 103.083007812 701.75 103.083007812 c 0
EndSplineSet
Validated: 524325
EndChar

StartChar: p
Encoding: 112 112 18
Width: 1000
Flags: H
LayerCount: 2
Fore
SplineSet
500.708007812 800 m 1
 499.375 798.916992188 l 1
 774.666992188 798.916992188 998.75 575.416992188 998.75 299.458007812 c 0
 998.75 23.5419921875 774.666992188 -200 499.375 -200 c 0
 447.541992188 -200 398.25 -192.083007812 351.458007812 -177.708007812 c 1
 372.041992188 -144.625 402.666992188 -90.1669921875 413.875 -46.625 c 2
 445.083007812 72.0419921875 l 1
 461.916992188 40.7919921875 509.416992188 14.5830078125 560 14.5830078125 c 0
 711.083007812 14.5830078125 819.708007812 153.208007812 819.708007812 325.5 c 0
 819.708007812 490.333007812 684.958007812 613.958007812 511.708007812 613.958007812 c 0
 296.208007812 613.958007812 181.708007812 469.125 181.708007812 311.791992188 c 0
 181.708007812 238.125 220.791992188 146.958007812 283.083007812 118.208007812 c 0
 292.625 113.791992188 297.583007812 115.708007812 299.791992188 125.083007812 c 0
 301.5 131.916992188 309.958007812 166.25 313.708007812 181.875 c 0
 314.833007812 186.875 314.291992188 191.25 310.166992188 196.25 c 0
 289.541992188 221.166992188 273.125 267.416992188 273.125 310.458007812 c 0
 273.125 420.333007812 356.416992188 527.083007812 498.5 527.083007812 c 0
 621.208007812 527.083007812 707.166992188 443.416992188 707.166992188 324.208007812 c 0
 707.166992188 189.125 638.833007812 95.5830078125 550.166992188 95.5830078125 c 0
 501.208007812 95.5830078125 464.333007812 136.083007812 476.208007812 185.791992188 c 0
 490.333007812 245.166992188 517.541992188 309.25 517.541992188 352.125 c 0
 517.541992188 390.416992188 496.958007812 422.458007812 454.291992188 422.458007812 c 0
 404.25 422.458007812 363.958007812 370.458007812 363.958007812 301.166992188 c 0
 363.958007812 256.958007812 378.916992188 226.958007812 378.916992188 226.958007812 c 1
 378.916992188 226.958007812 329.458007812 17.7919921875 320.333007812 -21.25 c 0
 310.333007812 -64.4169921875 314.25 -125 318.625 -164.541992188 c 1
 132.791992188 -91.8330078125 1.2080078125 88.9169921875 1.2080078125 300.541992188 c 0
 1.2080078125 576.375 224.833007812 800 500.708007812 800 c 1
EndSplineSet
Validated: 524321
EndChar

StartChar: r
Encoding: 114 114 19
Width: 1000
Flags: H
LayerCount: 2
Fore
SplineSet
500 800 m 0
 776.125 800 1000 576.125 1000 300 c 0
 1000 23.875 776.125 -200 500 -200 c 2
 72.4169921875 -200 l 2
 45.7080078125 -200 32.2919921875 -167.708007812 51.2080078125 -148.791992188 c 2
 146.458007812 -53.5419921875 l 1
 55.9580078125 36.9169921875 0 161.916992188 0 300 c 0
 0 576.125 223.875 800 500 800 c 0
682.833007812 666.708007812 m 0
 642.583007812 666.708007812 609.041992188 638.208007812 601.208007812 600.25 c 0
 533.833007812 593.041992188 481.208007812 535.916992188 481.208007812 466.625 c 2
 481.208007812 466.208007812 l 2
 407.916992188 463.125 341 442.25 287.875 409.333007812 c 0
 268.166992188 424.625 243.416992188 433.708007812 216.541992188 433.708007812 c 0
 152.041992188 433.708007812 99.75 381.458007812 99.75 316.958007812 c 0
 99.75 270.166992188 127.25 229.833007812 167 211.208007812 c 0
 170.875 75.6669921875 318.541992188 -33.375 500.25 -33.375 c 0
 681.916992188 -33.375 829.791992188 75.7919921875 833.458007812 211.458007812 c 0
 872.875 230.208007812 900.166992188 270.375 900.166992188 316.916992188 c 0
 900.166992188 381.416992188 847.875 433.666992188 783.416992188 433.666992188 c 0
 756.625 433.666992188 732 424.625 712.291992188 409.5 c 0
 658.708007812 442.666992188 591.041992188 463.5 517.041992188 466.291992188 c 2
 517.041992188 466.583007812 l 2
 517.041992188 516.208007812 553.916992188 557.375 601.708007812 564.125 c 2
 601.708007812 564.208007812 l 1
 610.375 527.458007812 643.416992188 500.083007812 682.833007812 500.083007812 c 0
 728.833007812 500.083007812 766.125 537.375 766.125 583.416992188 c 0
 766.125 629.416992188 728.833007812 666.708007812 682.833007812 666.708007812 c 0
345.958007812 317.708007812 m 0
 378.666992188 317.708007812 403.666992188 283.375 401.708007812 241 c 0
 399.75 198.666992188 375.375 183.291992188 342.625 183.291992188 c 0
 309.875 183.291992188 281.25 200.5 283.208007812 242.833007812 c 0
 285.166992188 285.208007812 313.291992188 317.708007812 345.958007812 317.708007812 c 0
654.541992188 317.708007812 m 0
 687.25 317.708007812 715.375 285.208007812 717.291992188 242.833007812 c 0
 719.25 200.5 690.583007812 183.291992188 657.875 183.291992188 c 0
 625.208007812 183.291992188 600.75 198.625 598.791992188 241 c 0
 596.833007812 283.375 621.791992188 317.708007812 654.541992188 317.708007812 c 0
500.25 150.5 m 0
 540.833007812 150.5 579.666992188 148.5 615.625 144.875 c 0
 621.75 144.25 625.666992188 137.875 623.291992188 132.166992188 c 0
 603.166992188 84.0830078125 555.666992188 50.3330078125 500.25 50.3330078125 c 0
 444.791992188 50.3330078125 397.333007812 84.0830078125 377.208007812 132.166992188 c 0
 374.791992188 137.875 378.708007812 144.25 384.833007812 144.875 c 0
 420.791992188 148.5 459.666992188 150.5 500.25 150.5 c 0
EndSplineSet
Validated: 524321
EndChar

StartChar: w
Encoding: 119 119 20
Width: 1000
Flags: H
LayerCount: 2
Fore
SplineSet
500 760 m 0
 753.639648438 760 960 553.639648438 960 300 c 0
 960 46.3603515625 753.639648438 -160 500 -160 c 0
 424.200195312 -160 349.259765625 -141.16015625 282.719726562 -105.440429688 c 2
 64.7998046875 -159.419921875 l 2
 63.2197265625 -159.799804688 61.599609375 -160 60 -160 c 0
 54.66015625 -160 49.4599609375 -157.860351562 45.6396484375 -153.919921875 c 0
 40.6796875 -148.8203125 38.8203125 -141.459960938 40.740234375 -134.599609375 c 2
 99.259765625 74.2001953125 l 2
 60.4599609375 142.919921875 40 220.799804688 40 300 c 0
 40 553.639648438 246.360351562 760 500 760 c 0
731.400390625 137.6796875 m 0
 741.240234375 164.900390625 741.240234375 188.259765625 738.280273438 193.099609375 c 0
 735.3203125 197.959960938 727.440429688 200.879882812 715.639648438 206.719726562 c 0
 703.83984375 212.559570312 645.780273438 240.759765625 634.940429688 244.639648438 c 0
 624.099609375 248.540039062 616.219726562 250.459960938 608.360351562 238.799804688 c 0
 600.5 227.139648438 577.860351562 200.879882812 570.98046875 193.080078125 c 0
 564.099609375 185.299804688 557.200195312 184.3203125 545.400390625 190.16015625 c 0
 533.599609375 196 495.540039062 208.3203125 450.440429688 248.040039062 c 0
 415.3203125 278.959960938 391.620117188 317.139648438 384.740234375 328.8203125 c 0
 377.860351562 340.5 384 346.799804688 389.919921875 352.620117188 c 0
 395.240234375 357.860351562 401.719726562 366.240234375 407.639648438 373.059570312 c 0
 413.559570312 379.879882812 415.51953125 384.740234375 419.440429688 392.51953125 c 0
 423.360351562 400.299804688 421.400390625 407.120117188 418.440429688 412.959960938 c 0
 415.51953125 418.8203125 391.900390625 476.200195312 382.059570312 499.559570312 c 0
 372.48046875 522.3203125 362.740234375 519.219726562 355.48046875 519.580078125 c 0
 348.580078125 519.900390625 340.719726562 520 332.83984375 520 c 0
 324.959960938 520 312.1796875 517.080078125 301.33984375 505.400390625 c 0
 290.5 493.719726562 260 465.5 260 408.120117188 c 0
 260 350.740234375 302.3203125 295.299804688 308.219726562 287.51953125 c 0
 314.139648438 279.740234375 391.5 161.959960938 509.959960938 111.440429688 c 0
 538.139648438 99.419921875 560.139648438 92.259765625 577.280273438 86.8603515625 c 0
 605.559570312 77.98046875 631.3203125 79.259765625 651.6796875 82.240234375 c 0
 674.360351562 85.580078125 721.559570312 110.440429688 731.400390625 137.6796875 c 0
EndSplineSet
Validated: 524321
EndChar

StartChar: T
Encoding: 84 84 21
Width: 1000
Flags: H
LayerCount: 2
Fore
SplineSet
497.666992188 800 m 0
 498.063476562 800.000976562 498.4140625 800.000976562 498.810546875 800.000976562 c 0
 499.20703125 800.000976562 499.603515625 800.000976562 500 800 c 0
 775.95703125 800 1000 575.95703125 1000 300 c 0
 1000 24.04296875 775.95703125 -200 500 -200 c 0
 224.04296875 -200 0 24.04296875 0 300 c 0
 0 575.1640625 222.801757812 798.716796875 497.666992188 800 c 0
704.416992188 499 m 0
 685.625 498.666992188 656.75 488.625 517.916992188 430.875 c 0
 469.25 410.666992188 372.083007812 368.791992188 226.333007812 305.291992188 c 0
 202.666992188 295.875 190.25 286.666992188 189.125 277.666992188 c 0
 186.958007812 260.375 211.833007812 255 243.166992188 244.791992188 c 0
 268.708007812 236.5 303.041992188 226.791992188 320.875 226.458007812 c 0
 337.083007812 226.041992188 355.125 232.708007812 375.125 246.458007812 c 0
 511.291992188 338.333007812 581.583007812 384.833007812 586 385.833007812 c 0
 589.125 386.541992188 593.458007812 387.416992188 596.375 384.833007812 c 0
 599.291992188 382.25 599 377.333007812 598.708007812 376 c 0
 596.208007812 365.458007812 468.291992188 249.083007812 460.916992188 241.416992188 c 0
 432.791992188 212.25 400.791992188 194.333007812 450.166992188 161.833007812 c 0
 492.875 133.666992188 517.75 115.708007812 561.75 86.8330078125 c 0
 589.875 68.4169921875 611.916992188 46.5419921875 640.916992188 49.25 c 0
 654.291992188 50.4580078125 668.083007812 63 675.083007812 100.5 c 0
 691.666992188 189.041992188 724.25 380.875 731.75 459.958007812 c 0
 732.416992188 466.875 731.583007812 475.75 730.916992188 479.625 c 0
 730.305664062 485.005859375 727.67578125 489.79296875 723.791992188 493.166992188 c 0
 717.791992188 498.041992188 708.583007812 499.083007812 704.416992188 499 c 0
EndSplineSet
Validated: 524321
EndChar

StartChar: W
Encoding: 87 87 22
Width: 1000
Flags: H
LayerCount: 2
Fore
SplineSet
420.75 -46.7919921875 m 1
 420.833007812 -46.625 l 2
 586.583007812 -30.375 712.333007812 71.6669921875 701.541992188 180 c 0
 690.791992188 288.916992188 547.708007812 363.833007812 381.916992188 347.416992188 c 0
 216.041992188 331 90.2919921875 229.416992188 101.083007812 120.708007812 c 0
 111.833007812 11.7919921875 255.041992188 -63.0830078125 420.75 -46.7919921875 c 1
377.083007812 82.5419921875 m 0
 392.833007812 108.375 384.583007812 137.916992188 358.666992188 148.875 c 0
 332.958007812 159.708007812 299.75 148.625 283.958007812 123.833007812 c 0
 267.833007812 98.75 275.375 69.0830078125 300.875 57.4580078125 c 0
 326.75 45.7080078125 361.083007812 56.875 377.083007812 82.5419921875 c 0
430 150.333007812 m 1
 429.416992188 149.166992188 l 1
 435.041992188 159.208007812 431.875 170.458007812 421.916992188 174.208007812 c 0
 412.083007812 178.625 399.666992188 173.666992188 393.916992188 164.208007812 c 0
 388.25 154.833007812 391.458007812 143.541992188 401.291992188 139.791992188 c 0
 411.291992188 135.625 424.125 140.458007812 430 150.333007812 c 1
437.333007812 263.625 m 0
 519 242.5 560.708007812 165.458007812 527.375 90.75 c 0
 493.458007812 14.1669921875 396.166992188 -26.7080078125 313.541992188 -0.0419921875 c 0
 233.875 25.75 200.125 104.375 234.958007812 175.375 c 0
 269.291992188 244.875 358.458007812 284.166992188 437.333007812 263.625 c 0
752.458007812 314.625 m 0
 752.458007812 315.041992188 l 1
 809.458007812 297.125 873.916992188 254.125 873.916992188 178.208007812 c 0
 873.916992188 52.4169921875 692.583007812 -105.958007812 420.25 -105.958007812 c 0
 212.458007812 -105.958007812 0 -5.375 0 160.5 c 0
 0 246.958007812 54.5419921875 347.083007812 148.375 441.666992188 c 0
 274.166992188 568.125 421.291992188 625.708007812 477.041992188 570 c 0
 501.416992188 545.625 503.958007812 503.666992188 488.291992188 452.958007812 c 0
 480.166992188 427.875 512.083007812 441.666992188 512.083007812 441.666992188 c 2
 614.125 484.291992188 703.041992188 486.75 735.583007812 440.416992188 c 0
 753.083007812 415.416992188 751.208007812 380.958007812 735.583007812 340.25 c 0
 728.708007812 322.125 738.041992188 319 752.458007812 314.625 c 0
831.958007812 526.791992188 m 1
 830.708007812 528.666992188 l 1
 862.625 492.958007812 871.375 444.75 857.625 402.208007812 c 0
 852 385.25 833.166992188 375.916992188 816.291992188 380.875 c 0
 798.75 386.541992188 789.375 405.291992188 795.041992188 422.208007812 c 0
 801.291992188 442.875 797.541992188 466.041992188 781.875 483.583007812 c 0
 766.25 501.125 743.083007812 507.333007812 721.791992188 502.958007812 c 0
 704.25 499.25 686.708007812 510.541992188 682.958007812 528.041992188 c 0
 679.208007812 545.583007812 690.458007812 563.125 708.625 566.875 c 0
 752.458007812 576.25 800.041992188 562.458007812 831.958007812 526.791992188 c 1
932.708007812 618.25 m 1
 931.458007812 620.125 l 1
 997.25 546.916992188 1015.33300781 447.333007812 987.208007812 360.333007812 c 0
 980.291992188 340.25 958.958007812 329.041992188 939 335.916992188 c 0
 919 342.166992188 907.708007812 364.125 914.583007812 384.125 c 0
 934.666992188 445.5 921.458007812 516.208007812 875.125 568.125 c 0
 828.833007812 619.5 759.958007812 639.541992188 696.125 625.75 c 0
 675.458007812 621.333007812 655.375 634.541992188 651.041992188 655.208007812 c 0
 646.625 675.791992188 659.791992188 695.916992188 680.458007812 700.25 c 0
 770 719.041992188 867.041992188 691.458007812 932.708007812 618.25 c 1
EndSplineSet
Validated: 524321
EndChar

StartChar: n
Encoding: 110 110 23
Width: 1000
Flags: H
LayerCount: 2
Fore
SplineSet
19.9462890625 486.083007812 m 1
 19.9462890625 486.083007812 19.9189453125 484.52734375 19.9462890625 484.553710938 c 0
 19.9365234375 485.076171875 19.904296875 485.573242188 19.904296875 486.09765625 c 0
 19.904296875 532.580078125 57.642578125 570.318359375 104.125 570.318359375 c 0
 104.649414062 570.318359375 105.173828125 570.313476562 105.696289062 570.303710938 c 2
 421.145507812 570.303710938 l 1
 237.387695312 754.0625 l 1
 283.333007812 800 l 1
 500.770507812 585.616210938 l 1
 715.154296875 800 l 1
 761.091796875 754.0625 l 1
 575.80859375 568.775390625 l 1
 575.80859375 568.775390625 895.849609375 568.748046875 895.849609375 568.775390625 c 1
 895.864257812 568.748046875 l 2
 941.825195312 568.748046875 979.237304688 531.8515625 980.071289062 486.087890625 c 2
 980.071289062 -19.24609375 l 2
 980.071289062 -65.728515625 942.333007812 -103.466796875 895.849609375 -103.466796875 c 2
 785.591796875 -103.466796875 l 1
 730.466796875 -190.75 l 2
 727.404296875 -196.875 721.279296875 -199.9375 713.62109375 -199.9375 c 0
 713.099609375 -199.978515625 712.603515625 -200.01953125 712.072265625 -200.01953125 c 0
 704.99609375 -200.01953125 698.776367188 -196.319335938 695.24609375 -190.75 c 2
 640.12109375 -103.466796875 l 1
 349.170898438 -103.466796875 l 1
 349.170898438 -103.466796875 294.077148438 -190.729492188 294.045898438 -190.75 c 0
 290.514648438 -196.319335938 284.327148438 -199.999023438 277.25 -199.999023438 c 0
 276.71875 -199.999023438 276.192382812 -199.978515625 275.670898438 -199.9375 c 0
 275.646484375 -199.9375 275.63671875 -199.958007812 275.612304688 -199.958007812 c 0
 268.561523438 -199.958007812 262.362304688 -196.28515625 258.825195312 -190.75 c 2
 203.700195312 -103.466796875 l 1
 104.166992188 -103.466796875 l 2
 57.68359375 -103.466796875 19.9462890625 -65.728515625 19.9462890625 -19.24609375 c 2
 19.9462890625 486.083007812 l 1
EndSplineSet
Validated: 524325
EndChar

StartChar: c
Encoding: 99 99 24
Width: 1000
Flags: H
LayerCount: 2
Fore
SplineSet
1000 402.375 m 0
 1000 389.041992188 990.416992188 370.583007812 985.958007812 361.708007812 c 0
 969.708007812 327 943.041992188 273.708007812 943.041992188 212.333007812 c 0
 943.041992188 78.4580078125 895.75 11.875 858.75 -22.1669921875 c 0
 816.620117188 -61.3359375 760.170898438 -85.4306640625 698.25 -85.7919921875 c 0
 647.415039062 -85.76953125 599.755859375 -70.7392578125 559.916992188 -45.125 c 0
 503 -7.4169921875 467.458007812 51.7919921875 431.25 110.916992188 c 0
 402.416992188 158.958007812 382.458007812 196.75 351.333007812 269.916992188 c 0
 333.791992188 312.333007812 317.458007812 353.75 303.416992188 398.833007812 c 0
 296.75 420.25 297.5 436.541992188 305.625 446.875 c 0
 313.75 456.458007812 324.875 460.916992188 338.125 461.666992188 c 0
 361.041992188 462.416992188 369.958007812 446.125 383.25 404 c 0
 391.375 377.375 407.666992188 338.875 417.25 317.458007812 c 0
 429.833007812 291.583007812 447.583007812 256.833007812 455.708007812 244.958007812 c 0
 462.375 234.541992188 468.291992188 231.625 474.916992188 231.625 c 0
 486.75 231.625 495.625 238.291992188 495.625 250.083007812 c 0
 495.625 256.75 488.958007812 267.833007812 485.291992188 274.5 c 0
 478.625 287.083007812 464.583007812 312.208007812 454.958007812 333.666992188 c 0
 443.633789062 359.701171875 432.884765625 386.696289062 423.166992188 413.541992188 c 0
 417.25 429.083007812 410.625 451.25 403.958007812 473.416992188 c 0
 393.625 507.416992188 388.416992188 528.125 388.416992188 543.708007812 c 0
 388.416992188 567.375 406.166992188 582.875 432.791992188 582.875 c 0
 452 582.875 464.583007812 573.291992188 472.708007812 538.541992188 c 0
 479.375 506.75 491.208007812 454.958007812 508.208007812 414.291992188 c 0
 519.291992188 387.666992188 535.541992188 352.125 545.166992188 334.375 c 0
 551.083007812 324.041992188 557.708007812 315.166992188 557.708007812 311.458007812 c 0
 557.708007812 306.291992188 548.125 298.125 539.958007812 287.083007812 c 0
 534.791992188 280.416992188 532.583007812 275.958007812 532.583007812 270.833007812 c 0
 532.583007812 266.375 535.541992188 261.916992188 539.958007812 256 c 0
 544.416992188 250.083007812 548.833007812 244.166992188 554.041992188 244.166992188 c 0
 557.708007812 244.166992188 559.958007812 245.666992188 562.166992188 248.625 c 0
 583.251953125 275.266601562 609.172851562 297.2578125 639.125 313.75 c 0
 673.125 332.958007812 707.916992188 342.583007812 735.291992188 348.5 c 0
 748.583007812 351.416992188 752.291992188 354.416992188 752.291992188 361.833007812 c 0
 752.291992188 370.666992188 745.625 375.833007812 736.75 376.583007812 c 0
 730.083007812 377.333007812 724.208007812 376.583007812 713.833007812 375.833007812 c 0
 706.458007812 375.083007812 702.75 378.791992188 698.333007812 388.416992188 c 0
 685 416.5 659.166992188 463.875 643.625 524.5 c 0
 636.041992188 553.145507812 630.5078125 583.056640625 627.375 613.25 c 0
 625.125 629.541992188 628.083007812 635.458007812 636.208007812 642.833007812 c 0
 646.583007812 651.708007812 665.041992188 655.416992188 679.125 651.708007812 c 0
 696.083007812 647.291992188 704.958007812 633.958007812 713.833007812 582.125 c 0
 718.291992188 557.75 725.666992188 526.708007812 734.541992188 500.041992188 c 0
 745.625 466.041992188 759.666992188 437.875 781.125 400.166992188 c 0
 792.958007812 379.458007812 807.708007812 358.041992188 823.25 337.25 c 0
 820.291992188 328.375 815.125 322.5 798.125 308.416992188 c 0
 781.125 294.375 764.125 279.583007812 748.583007812 252.25 c 0
 737.5 232.291992188 732.333007812 210.125 732.333007812 195.333007812 c 0
 732.333007812 181.291992188 735.25 178.333007812 744.166992188 178.333007812 c 0
 759.666992188 178.333007812 772.25 181.25 773 187.916992188 c 0
 776.666992188 214.583007812 781.125 231.541992188 795.916992188 251.583007812 c 0
 804.75 262.666992188 820.291992188 276.708007812 832.875 287.833007812 c 0
 856.5 307 864.666992188 318.125 872.791992188 345.458007812 c 0
 876.458007812 358.041992188 880.916992188 369.875 886.833007812 380.958007812 c 0
 900.875 406.791992188 926 436.375 965.25 436.375 c 0
 977.833007812 436.375 988.166992188 432.708007812 994.833007812 422.333007812 c 0
 998.107421875 416.51171875 999.975585938 409.795898438 999.975585938 402.646484375 c 0
 999.975585938 402.568359375 1000 402.452148438 1000 402.375 c 0
525.333007812 497.291992188 m 0
 514.25 543.875 512.75 557.166992188 503.875 578.666992188 c 0
 498.708007812 600.791992188 493.541992188 628.125 493.541992188 646.625 c 0
 493.541992188 674.708007812 519.416992188 685.791992188 540.833007812 685.791992188 c 0
 563.75 685.791992188 571.916992188 674.708007812 577.833007812 651.041992188 c 0
 583 631.833007812 585.208007812 614.083007812 587.458007812 593.375 c 0
 591.995117188 566.6015625 597.489257812 539.623046875 603.708007812 513.458007812 c 0
 614.791992188 472.833007812 636.958007812 424.708007812 663.583007812 367.041992188 c 1
 646.323242188 361.1015625 629.33203125 353.834960938 613.291992188 345.583007812 c 0
 595.541992188 336 591.875 336 584.5 350.041992188 c 0
 568.958007812 378.833007812 557.833007812 400.291992188 548.25 425.5 c 0
 540.125 446.208007812 532 469.875 525.333007812 497.291992188 c 0
213.5 199.5 m 0
 226.083007812 202.875 234.791992188 198.625 240.833007812 183.5 c 0
 247.5 166.875 242.916992188 160.208007812 228.75 151.458007812 c 0
 213.083007812 141.791992188 130.083007812 98.2919921875 111.333007812 91.375 c 0
 97.9580078125 86.375 83.4580078125 87.5830078125 74.9169921875 112.875 c 0
 64.4169921875 144.125 79.1669921875 151.5 100.125 159.625 c 0
 118.666992188 166.833007812 195.583007812 194.666992188 213.5 199.5 c 0
160.333007812 327.583007812 m 0
 138.041992188 327 45.3330078125 330.916992188 24.1669921875 333 c 0
 5.75 334.833007812 -1.7080078125 343 0.3330078125 369.666992188 c 0
 2.4580078125 398.291992188 13.625 400.041992188 31.7080078125 398.291992188 c 0
 52.6669921875 396.291992188 149.791992188 380.458007812 165.25 375.708007812 c 0
 181.25 370.75 183.458007812 363.458007812 181.5 349.5 c 0
 179 331.333007812 170.833007812 327.916992188 160.333007812 327.583007812 c 0
50.75 581 m 2
 50.7080078125 581 l 2
 32.8330078125 591.791992188 30.5419921875 601.458007812 43 625.041992188 c 0
 54 645.875 66.25 649.5 84.375 640.083007812 c 0
 105.416992188 629.125 179.708007812 571.333007812 193.875 559.916992188 c 0
 207.583007812 548.875 205.666992188 543.208007812 198.5 529 c 0
 191.333007812 514.791992188 184.583007812 511.208007812 171.833007812 515.208007812 c 0
 146.291992188 523.291992188 70.5 569.208007812 50.75 581 c 2
EndSplineSet
Validated: 524321
EndChar

StartChar: e
Encoding: 101 101 25
Width: 1000
Flags: H
LayerCount: 2
Fore
SplineSet
439.25 557.916992188 m 0
 328.708007812 532.958007812 249.833007812 444.958007812 232.958007812 341.666992188 c 1
 721.541992188 452.083007812 l 1
 660.083007812 537.625 549.791992188 582.916992188 439.25 557.916992188 c 0
724.25 151.833007812 m 2
 956.333007812 99.8330078125 l 1
 894.458007812 -35 771.125 -140.916992188 612.583007812 -176.75 c 0
 343.541992188 -237.541992188 75.0419921875 -73.375 12.9169921875 189.916992188 c 0
 -49.1669921875 453.25 118.583007812 715.958007812 387.625 776.75 c 0
 656.666992188 837.5 925.208007812 673.333007812 987.291992188 410.083007812 c 0
 994.692382812 378.736328125 999.060546875 346.244140625 1000 312.875 c 2
 847.375 278.416992188 l 1
 767.583007812 260.375 l 1
 277.458007812 149.666992188 l 1
 338.666992188 62.9580078125 449.708007812 16.9169921875 560.958007812 42.0830078125 c 0
 628.30078125 57.017578125 686.221679688 96.8984375 724.25 151.833007812 c 2
EndSplineSet
Validated: 524321
EndChar

StartChar: h
Encoding: 104 104 26
Width: 1000
Flags: H
LayerCount: 2
Fore
SplineSet
280.583007812 800 m 2
 719.416992188 800 l 2
 924.875 800 1000 724.875 1000 519.458007812 c 2
 1000 80.5 l 2
 1000 -124.875 924.708007812 -200 719.291992188 -200 c 2
 280.583007812 -200 l 2
 75.125 -200 0 -124.916992188 0 80.5 c 2
 0 519.458007812 l 2
 0 724.875 75.1669921875 800 280.583007812 800 c 2
333.333007812 633.333007812 m 1
 333.333007812 541.416992188 408.083007812 466.666992188 500 466.666992188 c 0
 591.916992188 466.666992188 666.666992188 541.416992188 666.666992188 633.333007812 c 1
 666.666992188 633.333007812 643.122070312 633.330078125 643.125 633.333007812 c 1
 643.033203125 554.3828125 578.950195312 490.299804688 500 490.208007812 c 0
 421.049804688 490.299804688 356.966796875 554.3828125 356.875 633.333007812 c 2
 333.333007812 633.333007812 l 1
602.833007812 300 m 1
 573.083007812 210 l 1
 544.166992188 299.916992188 l 1
 515.916992188 299.916992188 l 1
 561.541992188 169.083007812 l 1
 583.541992188 169.083007812 l 1
 613.291992188 255.041992188 l 1
 643.041992188 169.083007812 l 1
 665.208007812 169.083007812 l 1
 710.708007812 299.916992188 l 1
 683.208007812 299.916992188 l 1
 654.208007812 210 l 1
 624.5 300 l 1
 602.833007812 300 l 1
862.666992188 300 m 1
 862.666992188 169.25 l 1
 888.875 169.25 l 1
 888.875 300 l 1
 862.666992188 300 l 1
111.083007812 300 m 1
 111.083007812 169.083007812 l 1
 137.625 169.083007812 l 1
 137.625 222.25 l 1
 197.625 222.25 l 1
 197.625 169.083007812 l 1
 224.166992188 169.083007812 l 1
 224.166992188 300 l 1
 197.625 300 l 1
 197.625 247.208007812 l 1
 137.666992188 247.208007812 l 1
 137.666992188 300 l 1
 111.083007812 300 l 1
347.25 300 m 1
 347.208007812 225.083007812 l 2
 347.208007812 203.791992188 336.625 192.416992188 317.458007812 192.416992188 c 0
 298.125 192.416992188 287.5 204.125 287.5 225.958007812 c 2
 287.5 299.916992188 l 1
 261 299.916992188 l 1
 261 225.041992188 l 2
 261 188.25 281.458007812 167.125 317.125 167.125 c 0
 353.125 167.125 373.791992188 188.666992188 373.791992188 226.166992188 c 2
 373.791992188 300 l 1
 347.25 300 l 1
444.916992188 300 m 1
 387.208007812 169.166992188 l 1
 414.333007812 169.166992188 l 1
 426.25 196.416992188 l 1
 486.208007812 196.416992188 l 1
 497.958007812 169.166992188 l 1
 525.791992188 169.166992188 l 1
 468.375 300 l 1
 444.916992188 300 l 1
732.125 299.916992188 m 1
 732.083007812 169.166992188 l 1
 831 169.166992188 l 1
 831 193.041992188 l 1
 758.333007812 193.041992188 l 1
 758.333007812 225.416992188 l 1
 806.666992188 225.416992188 l 1
 806.666992188 249.291992188 l 1
 758.333007812 249.291992188 l 1
 758.333007812 276.083007812 l 1
 828.458007812 276.083007812 l 1
 828.458007812 299.916992188 l 1
 732.125 299.916992188 l 1
456.166992188 266.875 m 1
 476.333007812 220.041992188 l 1
 436.166992188 220.041992188 l 1
 456.166992188 266.875 l 1
EndSplineSet
Validated: 524289
EndChar

StartChar: j
Encoding: 106 106 27
Width: 1000
Flags: H
LayerCount: 2
Fore
SplineSet
97.7080078125 -199.875 m 2
 43.802734375 -199.829101562 0.0458984375 -156.072265625 0 -102.166992188 c 1
 0.001953125 -102.16796875 0 342.166992188 0 342.166992188 c 2
 0 397.291992188 22.2919921875 451.25 61.375 490.291992188 c 2
 309.916992188 738.666992188 l 2
 347.717773438 776.56640625 399.985351562 800.030273438 457.689453125 800.030273438 c 0
 457.743164062 800.030273438 457.821289062 800 457.875 800 c 1
 457.850585938 800.030273438 902.291992188 800 902.291992188 800 c 2
 956.197265625 799.954101562 999.954101562 756.197265625 1000 702.291992188 c 1
 999.998046875 702.29296875 1000 257.958007812 1000 257.958007812 c 2
 999.848632812 200.213867188 976.44140625 147.858398438 938.625 109.875 c 1
 938.598632812 109.916992188 690.083007812 -138.666992188 690.083007812 -138.666992188 c 2
 652.236328125 -176.568359375 599.931640625 -200.030273438 542.190429688 -200.030273438 c 0
 542.12109375 -200.030273438 542.02734375 -200 541.958007812 -200 c 1
 541.982421875 -200.029296875 541.958007812 -199.875 541.958007812 -199.875 c 1
 97.7080078125 -199.875 l 2
471.416992188 85.7080078125 m 1
 228.583007812 85.7080078125 l 1
 228.583007812 28.5830078125 l 1
 471.416992188 28.5830078125 l 1
 471.416992188 85.7080078125 l 1
165.125 528.583007812 m 1
 728.583007812 528.583007812 l 1
 728.583007812 -34.7080078125 l 1
 905.958007812 142.666992188 l 2
 935.389648438 172.2421875 953.6015625 213.00390625 953.708007812 257.958007812 c 1
 953.728515625 257.92578125 953.708007812 702.291992188 953.708007812 702.291992188 c 2
 953.708007812 730.541992188 930.708007812 753.708007812 902.291992188 753.708007812 c 2
 457.875 753.708007812 l 2
 457.764648438 753.708984375 457.654296875 753.708984375 457.54296875 753.708984375 c 0
 412.658203125 753.708984375 371.987304688 735.48046875 342.583007812 706 c 0
 342.598632812 705.9765625 165.125 528.583007812 165.125 528.583007812 c 1
157.125 520.583007812 m 1
 94 457.5 l 2
 64.6025390625 427.887695312 46.4130859375 387.120117188 46.2919921875 342.166992188 c 1
 46.2724609375 342.201171875 46.2919921875 -102.166992188 46.2919921875 -102.166992188 c 2
 46.2919921875 -130.416992188 69.2919921875 -153.583007812 97.7080078125 -153.583007812 c 2
 542.125 -153.583007812 l 2
 542.204101562 -153.583007812 542.282226562 -153.583984375 542.361328125 -153.583984375 c 0
 587.284179688 -153.583984375 627.990234375 -135.338867188 657.416992188 -105.833007812 c 0
 657.399414062 -105.809570312 720.416992188 -42.875 720.416992188 -42.875 c 1
 157.125 -42.875 l 1
 157.125 520.583007812 l 1
EndSplineSet
Validated: 524325
EndChar

StartChar: k
Encoding: 107 107 28
Width: 1000
Flags: H
LayerCount: 2
Fore
SplineSet
856.541992188 13.75 m 1
 673.916992188 800 l 1
 971 743.458007812 l 1
 856.541992188 13.75 l 1
29 702.166992188 m 1
 197.083007812 744.916992188 l 1
 197.083007812 406.541992188 l 1
 481.166992188 677.541992188 l 1
 626.833007812 621.75 l 1
 420.291992188 394.916992188 l 1
 557.25 -98.5419921875 l 1
 408.708007812 -98.5419921875 l 1
 299.291992188 279.708007812 l 1
 195.666992188 179.708007812 l 1
 197.125 -98.5830078125 l 1
 29 -92.75 l 1
 29 702.166992188 l 1
791.291992188 -42 m 1
 888.375 -42.0419921875 l 1
 925.333007812 -148.541992188 l 1
 838.333007812 -200 l 1
 750.041992188 -139.125 l 1
 791.291992188 -42 l 1
EndSplineSet
Validated: 524289
EndChar

StartChar: K
Encoding: 75 75 29
Width: 1000
Flags: H
LayerCount: 2
Fore
SplineSet
501.25 798.041992188 m 1
 501.208007812 798.083007812 l 1
 510.625 798.083007812 520.041992188 793.625 529.041992188 784.583007812 c 2
 685.708007812 627.708007812 l 2
 703.625 609.75 703.625 590 685.708007812 572.041992188 c 2
 500.333007812 386.5 l 2
 445.75 331.875 391.25 277.208007812 336.666992188 222.625 c 0
 326.541992188 212.5 317.541992188 214.833007812 313.916992188 228.875 c 0
 312.75 233.208007812 312.666992188 237.916992188 312.666992188 242.5 c 0
 312.583007812 303.041992188 312.666992188 363.625 312.666992188 424.166992188 c 0
 312.666992188 482.458007812 313.166992188 540.791992188 312.333007812 599.083007812 c 0
 312.083007812 615.958007812 316.041992188 629.125 328.958007812 640.25 c 0
 339.291992188 649.208007812 348.541992188 659.5 358.25 669.208007812 c 0
 396.625 707.666992188 434.958007812 746.125 473.375 784.541992188 c 0
 482.416992188 793.583007812 491.833007812 798.041992188 501.25 798.041992188 c 1
802.25 496.791992188 m 1
 802.25 496.833007812 l 1
 811.541992188 496.833007812 820.875 492.583007812 829.416992188 484.041992188 c 0
 880.375 433.083007812 931.166992188 382.041992188 982.166992188 331.208007812 c 0
 989.75 323.666992188 996.791992188 315.958007812 1000 305.5 c 2
 1000 291.75 l 2
 996.791992188 281.291992188 989.666992188 273.625 982.083007812 266.125 c 0
 931.375 215.541992188 880.875 164.833007812 830.25 114.166992188 c 0
 812 95.9169921875 792.5 95.9169921875 774.166992188 114.25 c 2
 617.5 271.166992188 l 2
 599.708007812 288.958007812 599.666992188 308.375 617.5 326.25 c 2
 775.166992188 483.916992188 l 2
 783.708007812 492.458007812 792.958007812 496.791992188 802.25 496.791992188 c 1
174.166992188 482.875 m 0
 174.509765625 482.921875 174.856445312 482.942382812 175.211914062 482.942382812 c 0
 176.2421875 482.942382812 177.225585938 482.740234375 178.125 482.375 c 0
 183.75 480.25 185.958007812 475.125 186.75 469.5 c 0
 187.25 466.041992188 187.666992188 462.541992188 187.666992188 459 c 2
 187.666992188 297.875 l 1
 187.75 297.875 l 1
 187.75 244.375 187.75 190.875 187.583007812 137.416992188 c 0
 187.541992188 132.333007812 186.791992188 127 184.958007812 122.25 c 0
 181.375 112.958007812 174.666992188 111.75 167.625 118.75 c 0
 143.041992188 143.333007812 118.583007812 168 94 192.583007812 c 2
 8.875 277.833007812 l 2
 -2.875 289.625 -2.9580078125 306 8.7080078125 317.833007812 c 2
 165.541992188 476.333007812 l 2
 168.125 478.958007812 170.583007812 482.291992188 174.166992188 482.875 c 0
503.666992188 197.958007812 m 1
 503.666992188 197.916992188 l 1
 513 197.958007812 522.333007812 193.666992188 531 185 c 2
 688.166992188 27.7919921875 l 2
 706.125 9.75 706.25 -10.0419921875 688.333007812 -27.9580078125 c 0
 637.25 -79.0830078125 586.083007812 -130.041992188 535.166992188 -181.291992188 c 0
 527.875 -188.625 520.416992188 -195.166992188 510.25 -198.041992188 c 2
 496.5 -198.041992188 l 2
 486.083007812 -194.75 478.541992188 -187.5 471.041992188 -180 c 0
 420.5 -129.208007812 369.875 -78.625 319.25 -27.9580078125 c 0
 301.125 -9.8330078125 301.125 9.5419921875 319.166992188 27.625 c 2
 476.333007812 184.833007812 l 2
 485.041992188 193.541992188 494.333007812 197.958007812 503.666992188 197.958007812 c 1
EndSplineSet
Validated: 524321
EndChar

StartChar: o
Encoding: 111 111 30
Width: 1000
Flags: H
LayerCount: 2
Fore
SplineSet
928.412109375 390.787109375 m 2
 928.412109375 390.787109375 928.284179688 390.407226562 928.412109375 390.783203125 c 1
 968.6640625 346.0703125 993.044921875 286.53515625 993.044921875 221.696289062 c 0
 993.044921875 175.975585938 980.858398438 133.078125 959.55859375 96.0791015625 c 0
 924.576171875 34.7294921875 864.296875 -10.1083984375 792.987304688 -24.7587890625 c 0
 760.385742188 -126.37890625 665.122070312 -200 552.732421875 -200 c 0
 552.653320312 -200 552.575195312 -200 552.49609375 -200 c 0
 552.020507812 -200.002929688 551.611328125 -200.1171875 551.134765625 -200.1171875 c 0
 476.973632812 -200.1171875 410.331054688 -167.672851562 364.637695312 -116.216796875 c 0
 347.532226562 -119.885742188 330.1171875 -122.09375 311.922851562 -122.09375 c 0
 218.412109375 -122.09375 136.72265625 -71.0751953125 93.1962890625 4.62109375 c 0
 71.630859375 41.4912109375 59.173828125 84.6962890625 59.173828125 130.458007812 c 0
 59.173828125 157.981445312 63.646484375 184.469726562 71.904296875 209.233398438 c 0
 31.46484375 253.930664062 6.9541015625 313.556640625 6.9541015625 378.51953125 c 0
 6.9541015625 424.575195312 19.33984375 467.760742188 40.9580078125 504.924804688 c 0
 75.9208984375 566.2890625 136.208984375 611.133789062 207.529296875 625.758789062 c 0
 240.563476562 726.883789062 335.618164062 800.10546875 447.716796875 800.10546875 c 0
 522.315429688 800.10546875 589.407226562 767.712890625 635.68359375 716.237304688 c 0
 652.764648438 719.8984375 670.154296875 722.102539062 688.323242188 722.102539062 c 0
 781.794921875 722.102539062 863.444335938 671.086914062 906.924804688 595.404296875 c 0
 928.556640625 558.473632812 941.0546875 515.186523438 941.0546875 469.333007812 c 0
 941.0546875 441.895507812 936.614257812 415.486328125 928.412109375 390.787109375 c 2
552.49609375 -134.549804688 m 0
 655.750976562 -134.33203125 739.546875 -50.5380859375 739.766601562 52.716796875 c 2
 739.766601562 52.716796875 739.76953125 285.326171875 739.766601562 285.325195312 c 1
 739.61328125 286.2734375 739.01171875 287.072265625 738.18359375 287.491210938 c 2
 654.016601562 336.18359375 l 1
 654.016601562 336.18359375 654.051757812 55.4970703125 654.016601562 55.4794921875 c 0
 653.951171875 43.3740234375 647.413085938 32.814453125 637.654296875 27.091796875 c 2
 438.55859375 -87.8330078125 l 1
 438.55859375 -87.8330078125 432.752929688 -91.2373046875 432.645507812 -91.18359375 c 1
 465.0078125 -118.21875 506.76953125 -134.549804688 552.1953125 -134.549804688 c 0
 552.294921875 -134.549804688 552.395507812 -134.549804688 552.49609375 -134.549804688 c 0
149.966796875 37.341796875 m 0
 182.38671875 -18.7265625 243.087890625 -56.1650390625 312.456054688 -56.1650390625 c 0
 346.4453125 -56.1650390625 378.333007812 -47.1005859375 405.833007812 -31.2587890625 c 2
 405.833007812 -31.2587890625 607.48828125 85.0458984375 607.491210938 85.0458984375 c 0
 608.294921875 85.6259765625 608.827148438 86.5546875 608.875 87.6083984375 c 2
 608.875 184.791992188 l 1
 608.875 184.791992188 365.356445312 44.4375 365.424804688 44.4375 c 1
 360.661132812 41.642578125 355.045898438 40.0390625 349.127929688 40.0390625 c 0
 343.209960938 40.0390625 337.6640625 41.642578125 332.900390625 44.4375 c 2
 133.608398438 159.362304688 l 1
 133.608398438 159.362304688 127.813476562 162.879882812 127.69140625 162.912109375 c 1
 125.844726562 152.39453125 125.00390625 141.541992188 125.00390625 130.499023438 c 0
 125.00390625 96.572265625 134.092773438 64.751953125 149.966796875 37.341796875 c 0
97.533203125 471.016601562 m 1
 97.533203125 471.016601562 97.212890625 471.918945312 97.533203125 472 c 1
 81.736328125 444.509765625 72.37890625 412.568359375 72.37890625 378.615234375 c 0
 72.37890625 309.243164062 110.100585938 248.61328125 166.133789062 216.133789062 c 2
 166.133789062 216.133789062 367.40234375 100.029296875 367.395507812 100.029296875 c 1
 367.8359375 99.794921875 368.344726562 99.6630859375 368.877929688 99.6630859375 c 0
 369.411132812 99.6630859375 369.9140625 99.794921875 370.354492188 100.029296875 c 2
 454.525390625 148.716796875 l 1
 454.525390625 148.716796875 212.291992188 288.451171875 212.258789062 288.479492188 c 0
 202.587890625 293.969726562 196.092773438 304.334960938 196.092773438 316.240234375 c 0
 196.092773438 316.3828125 196.09375 316.524414062 196.095703125 316.666992188 c 2
 196.095703125 316.666992188 196.278320312 553.4765625 196.095703125 553.216796875 c 0
 154.272460938 538.205078125 119.514648438 508.954101562 97.533203125 471.016601562 c 1
789.045898438 310.358398438 m 1
 789.045898438 310.358398438 789.006835938 310.366210938 789.041992188 310.362304688 c 0
 798.900390625 304.904296875 805.633789062 294.540039062 806 282.571289062 c 2
 806 282.571289062 806.12109375 45.8359375 806 46.0205078125 c 1
 877.184570312 72.5537109375 928.0625 140.9921875 928.0625 221.375 c 0
 928.0625 290.731445312 890.27734375 351.331054688 834.1875 383.696289062 c 2
 834.1875 383.696289062 632.918945312 500 632.924804688 500 c 1
 632.484375 500.233398438 631.975585938 500.366210938 631.442382812 500.366210938 c 0
 630.909179688 500.366210938 630.407226562 500.233398438 629.966796875 500 c 2
 545.991210938 451.5 l 1
 789.045898438 310.358398438 l 1
872.825195312 436.321289062 m 1
 872.825195312 436.321289062 872.625 436.821289062 872.829101562 437.112304688 c 0
 874.609375 447.48046875 875.333007812 457.84765625 875.333007812 468.720703125 c 0
 875.333007812 572.185546875 791.33203125 656.186523438 687.866210938 656.186523438 c 0
 653.876953125 656.186523438 621.987304688 647.122070312 594.487304688 631.279296875 c 2
 594.487304688 631.279296875 393.227539062 515.174804688 393.224609375 515.170898438 c 0
 392.5 514.673828125 392.026367188 513.84375 392.026367188 512.8984375 c 0
 392.026367188 512.80078125 392.03125 512.704101562 392.041992188 512.608398438 c 2
 392.041992188 415.428710938 l 1
 392.041992188 415.428710938 635.356445312 555.779296875 635.287109375 555.779296875 c 1
 640.081054688 558.591796875 645.73046875 560.205078125 651.684570312 560.205078125 c 0
 657.638671875 560.205078125 663.219726562 558.591796875 668.012695312 555.779296875 c 2
 866.908203125 439.87109375 l 1
 872.825195312 436.321289062 l 1
346.104492188 264.041992188 m 1
 346.104492188 264.041992188 346.268554688 544.13671875 346.303710938 544.154296875 c 0
 346.369140625 556.259765625 352.908203125 566.818359375 362.666992188 572.541992188 c 2
 561.758789062 687.458007812 l 1
 561.758789062 687.458007812 567.55859375 690.864257812 567.674804688 690.8125 c 1
 535.189453125 717.823242188 493.330078125 734.125976562 447.8203125 734.125976562 c 0
 344.4375 734.125976562 260.48828125 650.259765625 260.354492188 546.908203125 c 2
 260.354492188 546.908203125 260.350585938 314.89453125 260.354492188 314.895507812 c 1
 260.5078125 313.893554688 261.102539062 313.036132812 261.9375 312.533203125 c 2
 346.104492188 264.041992188 l 1
391.837890625 362.599609375 m 1
 392.037109375 237.625 l 1
 500.650390625 175.137695312 l 1
 608.875 237.625 l 1
 608.875 362.599609375 l 1
 500.25390625 425.091796875 l 1
 391.837890625 362.599609375 l 1
EndSplineSet
Validated: 524325
EndChar

StartChar: q
Encoding: 113 113 31
Width: 1000
Flags: H
LayerCount: 2
Fore
SplineSet
859.759765625 271.799804688 m 0
 889.099609375 227.440429688 900 193.719726562 900 145.900390625 c 0
 900 43.8203125 882.900390625 39.98046875 880.3203125 39.98046875 c 0
 880.120117188 39.98046875 880 40 880 40 c 2
 865.879882812 40 829.419921875 70 808.219726562 95.2998046875 c 1
 793.3203125 54.33984375 772.099609375 16.7802734375 745.98046875 -15.8603515625 c 1
 782.400390625 -30.7197265625 805.879882812 -53.900390625 805.879882812 -79.5 c 0
 805.879882812 -123.200195312 737.639648438 -160 652.940429688 -160 c 0
 610.780273438 -160 572.740234375 -150.879882812 545.120117188 -136.33984375 c 0
 530.379882812 -138.620117188 515.360351562 -140 500 -140 c 0
 484.580078125 -140 469.5 -138.599609375 454.700195312 -136.3203125 c 0
 427.080078125 -150.83984375 389.1796875 -160 347.059570312 -160 c 0
 262.360351562 -160 194.120117188 -123.200195312 194.120117188 -79.5 c 0
 194.120117188 -53.919921875 217.719726562 -30.83984375 254.099609375 -15.98046875 c 1
 227.940429688 16.6796875 206.700195312 54.2998046875 191.759765625 95.2998046875 c 1
 170.580078125 70 134.120117188 40 120 40 c 2
 120 40 119.879882812 39.98046875 119.6796875 39.98046875 c 0
 117.099609375 39.98046875 100 43.8203125 100 145.900390625 c 0
 100 181.440429688 117.200195312 223.959960938 140.8203125 265.919921875 c 0
 140.299804688 268.700195312 140 271.559570312 140 274.459960938 c 2
 140 316.740234375 l 2
 140 331.98046875 147.400390625 346.200195312 160.280273438 355.740234375 c 0
 166.1796875 360.099609375 172.919921875 363.059570312 180 364.83984375 c 0
 180 404.719726562 180 465.099609375 180 481.700195312 c 0
 180 635.799804688 332.940429688 760.01953125 500 760.01953125 c 0
 667.059570312 760.01953125 820 634.120117188 820 480.01953125 c 0
 820 461.639648438 820 403.799804688 820 364.879882812 c 0
 827.080078125 363.080078125 833.8203125 360.139648438 839.719726562 355.759765625 c 0
 852.599609375 346.200195312 860 332 860 316.759765625 c 2
 860 274.48046875 l 2
 860 273.559570312 859.8203125 272.700195312 859.759765625 271.799804688 c 0
500 440 m 0
 396.48046875 440 311.759765625 429.5 311.759765625 417.5 c 0
 311.759765625 405.5 396.459960938 380 500 380 c 0
 603.540039062 380 688.240234375 405.5 688.240234375 417.5 c 0
 688.240234375 429.5 603.51953125 440 500 440 c 0
360 560 m 0
 360 515.8203125 386.860351562 480 420 480 c 0
 453.139648438 480 480 515.8203125 480 560 c 0
 480 604.1796875 453.139648438 640 420 640 c 0
 386.860351562 640 360 604.1796875 360 560 c 0
520 560 m 0
 520 515.8203125 546.860351562 480 580 480 c 0
 613.139648438 480 640 515.8203125 640 560 c 0
 640 604.1796875 613.139648438 640 580 640 c 0
 546.860351562 640 520 604.1796875 520 560 c 0
183.639648438 316.740234375 m 2
 183.639648438 280.780273438 l 2
 183.459960938 266.440429688 195.700195312 264.240234375 206 261.66015625 c 0
 256.759765625 251.139648438 346.639648438 240 500.1796875 240 c 0
 669.040039062 240 760.98046875 253.5 808.360351562 264.799804688 c 0
 813.139648438 265.940429688 816.379882812 269.940429688 816.379882812 274.459960938 c 2
 816.379882812 316.740234375 l 2
 816.379882812 319.879882812 814.940429688 322.6796875 812.299804688 324.620117188 c 0
 810.379882812 326.040039062 808.139648438 326.780273438 805.780273438 326.780273438 c 0
 805.040039062 326.780273438 804.280273438 326.700195312 803.51953125 326.559570312 c 0
 752.299804688 316.459960938 658.139648438 304.440429688 500 304.440429688 c 0
 341.860351562 304.440429688 247.700195312 316.48046875 196.540039062 326.559570312 c 0
 195.8203125 326.700195312 195.01953125 326.780273438 194.259765625 326.780273438 c 0
 191.879882812 326.780273438 189.599609375 326.01953125 187.6796875 324.599609375 c 0
 185.080078125 322.6796875 183.639648438 319.879882812 183.639648438 316.740234375 c 2
720.040039062 210.040039062 m 1
 666.440429688 204.259765625 594.959960938 200 500.1796875 200 c 0
 453.559570312 200 412.700195312 201.040039062 376.6796875 202.780273438 c 2
 358.580078125 108.799804688 l 2
 356.419921875 96.5400390625 349.940429688 86.1201171875 340.98046875 78.7998046875 c 0
 383.98046875 23.6201171875 435.599609375 -20 500 -20 c 0
 598.459960938 -20 682.959960938 85.2998046875 720.040039062 210.040039062 c 1
337.01953125 205.059570312 m 1
 315.200195312 206.559570312 295.599609375 208.33984375 277.940429688 210.280273438 c 2
 260.080078125 126.099609375 l 2
 259.120117188 120.6796875 262.759765625 115.48046875 268.200195312 114.51953125 c 2
 307.599609375 107.599609375 l 2
 308.139648438 107.5 308.759765625 107.440429688 309.33984375 107.440429688 c 0
 313.400390625 107.440429688 318.240234375 110.33984375 319.1796875 115.719726562 c 2
 337.01953125 205.059570312 l 1
400 540 m 0
 400 551.045898438 408.954101562 560 420 560 c 0
 431.045898438 560 440 551.045898438 440 540 c 0
 440 528.954101562 431.045898438 520 420 520 c 0
 408.954101562 520 400 528.954101562 400 540 c 0
580 560 m 0
 591.040039062 560 600 551.040039062 600 540 c 1
 560 540 l 1
 560 551.040039062 568.959960938 560 580 560 c 0
EndSplineSet
Validated: 524289
EndChar

StartChar: v
Encoding: 118 118 32
Width: 1000
Flags: H
LayerCount: 2
Fore
SplineSet
947.166992188 518.041992188 m 1
 947.166992188 518.083007812 l 1
 976.291992188 518.083007812 1000 494.375 1000 465.208007812 c 2
 1000 465.208007812 999.946289062 244.538085938 1000 244.541992188 c 1
 999.952148438 217.240234375 979.129882812 194.756835938 952.541992188 192 c 2
 952.625 111.208007812 l 2
 952.625 101.708007812 949.916992188 94.25 944.583007812 88.875 c 0
 940.125 84.4169921875 934.166992188 81.9169921875 927.791992188 81.9169921875 c 0
 917.916992188 81.9169921875 908.416992188 87.75 899.458007812 99.2080078125 c 2
 827.583007812 191.708007812 l 1
 52.8330078125 191.708007812 l 2
 23.75 191.708007812 0 215.375 0 244.541992188 c 2
 0 244.541992188 0.001953125 465.209960938 0 465.208007812 c 1
 0.0458984375 494.346679688 23.6953125 517.99609375 52.8330078125 518.041992188 c 2
 947.166992188 518.041992188 l 1
980.5 244.541992188 m 1
 980.5 244.583007812 l 1
 980.5 464 l 2
 980.5 482.397460938 965.563476562 497.333007812 947.166992188 497.333007812 c 2
 52.8330078125 497.333007812 l 2
 34.4365234375 497.333007812 19.5 482.397460938 19.5 464 c 2
 19.5 244.5 l 2
 19.5 226.102539062 34.4365234375 211.166992188 52.8330078125 211.166992188 c 2
 837.125 211.166992188 l 1
 914.875 111.166992188 l 2
 919.875 104.666992188 924.5 101.375 927.791992188 101.375 c 0
 931.083007812 101.375 933.166992188 104.625 933.166992188 111.083007812 c 2
 933 209.875 l 1
 933 211.166992188 l 1
 933 211.166992188 947.166992188 211.166015625 947.166992188 211.166992188 c 1
 965.563476562 211.166992188 980.5 226.1015625 980.5 244.499023438 c 2
 980.5 244.541992188 l 1
185.166992188 442.791992188 m 0
 193.625 442.791992188 204.875 437.25 204.875 429.791992188 c 0
 204.875 429.041992188 204.625 428.333007812 204.416992188 427.375 c 2
 158.208007812 276.125 l 2
 156.083007812 268.875 147.208007812 265.541992188 138.041992188 265.541992188 c 0
 128.875 265.541992188 120.25 268.916992188 117.833007812 276.125 c 2
 71.4169921875 427.375 l 2
 71.1669921875 428.333007812 70.9580078125 429.291992188 70.9580078125 429.791992188 c 0
 70.9580078125 437.5 82.25 442.75 90.6669921875 442.75 c 0
 95.9580078125 442.75 100 441.083007812 101.25 436.5 c 2
 138.041992188 306.166992188 l 1
 174.583007812 436.541992188 l 2
 175.791992188 441.083007812 179.875 442.791992188 185.166992188 442.791992188 c 0
307.041992188 344.458007812 m 2
 307.041992188 344.416992188 l 1
 307.041992188 344.416992188 338.544921875 285.954101562 338.541992188 285.958007812 c 1
 339.275390625 284.91015625 339.709960938 283.630859375 339.709960938 282.255859375 c 0
 339.709960938 282.212890625 339.708984375 282.168945312 339.708007812 282.125 c 0
 339.708007812 274.208007812 329.375 265.75 320.25 265.75 c 0
 315.916992188 265.75 311.833007812 268.416992188 309.416992188 273.208007812 c 2
 275.25 339.583007812 l 1
 255.083007812 339.583007812 l 1
 255.083007812 276.833007812 l 2
 255.083007812 270.333007812 247.333007812 266.958007812 239.416992188 266.958007812 c 0
 231.5 266.958007812 223.833007812 270.333007812 223.833007812 276.833007812 c 2
 223.833007812 276.833007812 223.828125 433.168945312 223.833007812 433.166992188 c 1
 223.8984375 438.4921875 228.236328125 442.797851562 233.577148438 442.797851562 c 0
 233.690429688 442.797851562 233.803710938 442.795898438 233.916992188 442.791992188 c 2
 281.583007812 442.791992188 l 2
 313.083007812 442.791992188 338.583007812 430.75 338.583007812 392.5 c 0
 338.583007812 364.875 325.083007812 349.958007812 307.041992188 344.458007812 c 2
281.625 364.166992188 m 1
 281.583007812 364.125 l 1
 297.25 364.125 307.333007812 370.625 307.333007812 389.625 c 0
 307.333007812 408.625 297.208007812 415.375 281.583007812 415.375 c 2
 255.125 415.375 l 1
 255.125 364.166992188 l 1
 281.625 364.166992188 l 1
700.625 329.75 m 1
 721.541992188 403.583007812 l 1
 742.458007812 329.75 l 1
 700.625 329.75 l 1
895.791992188 458.708007812 m 1
 895.791992188 458.708007812 895.75 458.708984375 895.75 458.708007812 c 1
 914.147460938 458.708007812 929.083007812 443.7734375 929.083007812 425.375976562 c 2
 929.083007812 425.333007812 l 1
 929.083007812 284.416992188 l 2
 929.083007812 266.01953125 914.147460938 251.083007812 895.75 251.083007812 c 2
 390.25 251.083007812 l 2
 371.852539062 251.083007812 356.916992188 266.01953125 356.916992188 284.416992188 c 2
 356.916992188 425.375 l 2
 356.916992188 443.772460938 371.852539062 458.708007812 390.25 458.708007812 c 2
 895.791992188 458.708007812 l 1
439.708007812 293 m 0
 423.125 293 414 301.916992188 414 320.666992188 c 2
 414 387.75 l 2
 414 406.5 423.125 415.375 439.25 415.375 c 0
 462.083007812 415.375 463.75 399.041992188 464.25 391.625 c 0
 464.458007812 384.375 470.958007812 381.708007812 479.875 381.708007812 c 0
 490.458007812 381.708007812 495.5 384.625 495.5 397.125 c 0
 495.5 425.041992188 471.666992188 442.833007812 438.25 442.833007812 c 0
 407.958007812 442.833007812 382.708007812 427.875 382.708007812 387.75 c 2
 382.708007812 320.666992188 l 2
 382.708007812 280.458007812 407.708007812 265.583007812 438 265.583007812 c 0
 471.708007812 265.583007812 495.458007812 284.083007812 495.458007812 313.166992188 c 0
 495.458007812 325.416992188 490.458007812 328.541992188 479.625 328.541992188 c 0
 471.458007812 328.541992188 464.708007812 326.166992188 464.25 318.708007812 c 0
 463.5 308.583007812 461.583007812 293 439.708007812 293 c 0
635.666992188 276.833007812 m 1
 635.666992188 433.166992188 l 2
 635.666992188 439.875 627.958007812 442.75 620.041992188 442.75 c 0
 612.125 442.75 604.416992188 439.875 604.416992188 433.166992188 c 2
 604.416992188 370.375 l 1
 550.291992188 370.375 l 1
 550.291992188 433.166992188 l 2
 550.291992188 439.875 542.583007812 442.75 534.666992188 442.75 c 0
 526.75 442.75 519.041992188 439.875 519.041992188 433.166992188 c 2
 519.041992188 276.833007812 l 2
 519.041992188 270.333007812 526.958007812 266.958007812 534.666992188 266.958007812 c 0
 542.375 266.958007812 550.291992188 270.333007812 550.291992188 276.833007812 c 2
 550.291992188 345.833007812 l 1
 604.416992188 345.833007812 l 1
 604.416992188 276.833007812 l 2
 604.416992188 270.333007812 612.333007812 266.958007812 620.041992188 266.958007812 c 0
 627.75 266.958007812 635.666992188 270.333007812 635.666992188 276.833007812 c 1
768.916992188 267 m 0
 777.291992188 267 788.625 272.5 788.625 279.958007812 c 0
 788.625 280.708007812 788.375 281.416992188 788.125 282.375 c 2
 741.708007812 433.625 l 2
 739.541992188 440.875 730.375 444.208007812 721.5 444.208007812 c 0
 712.625 444.208007812 703.708007812 440.833007812 701.583007812 433.625 c 2
 655.166992188 282.375 l 2
 654.916992188 281.416992188 654.666992188 280.458007812 654.666992188 279.958007812 c 0
 654.666992188 272.291992188 665.958007812 267 674.375 267 c 0
 679.666992188 267 683.75 268.666992188 684.958007812 273.25 c 2
 694.083007812 305.25 l 1
 749.166992188 305.25 l 1
 758.333007812 273.25 l 2
 759.541992188 268.666992188 763.625 267 768.916992188 267 c 0
893.458007812 414.625 m 2
 899.708007812 414.625 903.333007812 421.291992188 903.333007812 428.791992188 c 0
 903.333007812 435.541992188 900.166992188 442.75 893.416992188 442.75 c 2
 791.75 442.75 l 2
 785 442.75 781.875 435.5 781.875 428.75 c 0
 781.875 421.125 785.5 414.583007812 791.75 414.583007812 c 2
 827.083007812 414.583007812 l 1
 827.083007812 276.875 l 2
 827.083007812 270.375 835 267 842.708007812 267 c 0
 850.416992188 267 858.333007812 270.375 858.333007812 276.875 c 2
 858.333007812 414.625 l 1
 893.458007812 414.625 l 2
EndSplineSet
Validated: 524325
EndChar

StartChar: V
Encoding: 86 86 33
Width: 1000
Flags: H
LayerCount: 2
Fore
SplineSet
395.375 799.833007812 m 2
 425.75 799.958007812 l 1
 574.25 799.958007812 l 1
 604.666992188 799.833007812 l 1
 642.75 799.416992188 l 1
 660.791992188 799.125 l 1
 678.208007812 798.666992188 l 1
 695 798.083007812 l 1
 711.166992188 797.416992188 l 1
 726.75 796.541992188 l 1
 741.75 795.5 l 1
 756.125 794.25 l 1
 770 792.875 l 2
 842.5 784.708007812 892.208007812 767.208007812 929.708007812 729.708007812 c 0
 967.208007812 692.208007812 984.708007812 642.541992188 992.875 570 c 2
 994.291992188 556.125 l 1
 995.5 541.708007812 l 1
 996.541992188 526.708007812 l 1
 997.375 511.166992188 l 1
 998.416992188 486.666992188 l 1
 998.916992188 469.583007812 l 1
 999.458007812 442.75 l 1
 999.833007812 404.625 l 1
 1000 363.791992188 l 1
 999.958007812 225.75 l 1
 999.833007812 195.333007812 l 1
 999.416992188 157.25 l 1
 999.125 139.208007812 l 1
 998.666992188 121.791992188 l 1
 998.083007812 105 l 1
 997.416992188 88.8330078125 l 1
 996.541992188 73.25 l 1
 995.5 58.25 l 1
 994.25 43.875 l 1
 992.875 30 l 2
 984.708007812 -42.5 967.208007812 -92.2080078125 929.708007812 -129.708007812 c 0
 892.208007812 -167.208007812 842.541992188 -184.708007812 770 -192.875 c 2
 756.125 -194.291992188 l 1
 741.708007812 -195.5 l 1
 726.708007812 -196.541992188 l 1
 711.166992188 -197.375 l 1
 686.666992188 -198.416992188 l 1
 669.583007812 -198.916992188 l 1
 642.75 -199.458007812 l 1
 604.625 -199.833007812 l 1
 563.791992188 -200 l 1
 425.75 -199.958007812 l 1
 395.333007812 -199.833007812 l 1
 357.25 -199.416992188 l 1
 339.208007812 -199.125 l 1
 321.791992188 -198.666992188 l 1
 305 -198.083007812 l 1
 288.833007812 -197.416992188 l 1
 273.25 -196.541992188 l 1
 258.25 -195.5 l 1
 243.875 -194.25 l 1
 230 -192.875 l 2
 157.5 -184.708007812 107.791992188 -167.208007812 70.2919921875 -129.708007812 c 0
 32.7919921875 -92.2080078125 15.2919921875 -42.5419921875 7.125 30 c 2
 5.7080078125 43.875 l 1
 4.5 58.2919921875 l 1
 3.4580078125 73.2919921875 l 1
 2.625 88.8330078125 l 1
 1.5830078125 113.333007812 l 1
 1.0830078125 130.416992188 l 1
 0.5419921875 157.25 l 1
 0.1669921875 195.375 l 1
 -0 236.208007812 l 1
 0.0419921875 374.25 l 1
 0.1669921875 404.666992188 l 1
 0.5830078125 442.75 l 1
 0.875 460.791992188 l 1
 1.3330078125 478.208007812 l 1
 1.9169921875 495 l 1
 2.5830078125 511.166992188 l 1
 3.4580078125 526.75 l 1
 4.5 541.75 l 1
 5.75 556.125 l 1
 7.125 570 l 2
 15.2919921875 642.5 32.7919921875 692.208007812 70.2919921875 729.708007812 c 0
 107.791992188 767.208007812 157.458007812 784.708007812 230 792.875 c 2
 243.875 794.291992188 l 1
 258.291992188 795.5 l 1
 273.291992188 796.541992188 l 1
 288.833007812 797.375 l 1
 313.333007812 798.416992188 l 1
 330.416992188 798.916992188 l 1
 357.25 799.458007812 l 1
 395.375 799.833007812 l 2
282.916992188 495.833007812 m 1
 168.75 495.833007812 l 1
 174.166992188 235.833007812 304.166992188 79.5830078125 532.083007812 79.5830078125 c 2
 545 79.5830078125 l 1
 545 228.333007812 l 1
 628.75 220 692.083007812 158.75 717.5 79.5830078125 c 2
 835.833007812 79.5830078125 l 1
 803.333007812 197.916992188 717.916992188 263.333007812 664.583007812 288.333007812 c 1
 717.916992188 319.166992188 792.916992188 394.166992188 810.833007812 495.833007812 c 1
 703.333007812 495.833007812 l 2
 680 413.333007812 610.833007812 338.333007812 545 331.25 c 1
 545 495.833007812 l 1
 437.5 495.833007812 l 1
 437.5 207.5 l 1
 370.833007812 224.166992188 286.666992188 305 282.916992188 495.833007812 c 1
EndSplineSet
Validated: 524289
EndChar

StartChar: z
Encoding: 122 122 34
Width: 1000
Flags: H
LayerCount: 2
Fore
SplineSet
238.375 800 m 2
 761.708007812 800 l 2
 906.25 800 1000 706.291992188 1000 561.666992188 c 2
 1000 38.2919921875 l 2
 1000 -106.25 906.291992188 -200 761.708007812 -200 c 2
 238.375 -200 l 2
 93.8330078125 -200 0 -106.291992188 0 38.3330078125 c 2
 0 561.708007812 l 2
 0 706.25 93.7919921875 800 238.375 800 c 2
320.208007812 630.083007812 m 1
 320.208007812 630.083007812 268.291992188 630.041992188 250.583007812 583.208007812 c 0
 243.291992188 563.875 222.041992188 489.75 184.291992188 413.875 c 1
 196.958007812 415.25 239 416.375 263.75 462 c 0
 268.333007812 474.75 269.25 476.458007812 274.916992188 493.375 c 2
 337.208007812 493.375 l 1
 337.208007812 470.75 334.625 348.5 333.625 335.166992188 c 2
 220.708007812 335.166992188 l 2
 195.333007812 334.208007812 187.125 283.041992188 187.125 282.416992188 c 1
 328.708007812 282.416992188 l 1
 319.25 174.916992188 268.333007812 83.7919921875 175.916992188 11.7080078125 c 1
 220.083007812 -0.9580078125 264.125 13.7080078125 285.916992188 33.2080078125 c 2
 285.916992188 33.2080078125 335.583007812 78.5830078125 362.791992188 183.5 c 1
 479.208007812 42.5830078125 l 1
 479.208007812 42.5830078125 496.291992188 100.916992188 476.583007812 129.291992188 c 0
 460.166992188 148.666992188 416 201 397.166992188 220 c 2
 397.166992188 220 365.721679688 195.208984375 365.625 194.833007812 c 1
 374.481445312 222.666015625 380.346679688 252.245117188 382.625 282.416992188 c 2
 515.708007812 282.416992188 l 1
 515.708007812 283.041992188 515.5 334.208007812 499.333007812 335.166992188 c 2
 499.333007812 335.166992188 386.280273438 333.004882812 386.333007812 335.166992188 c 0
 389.47265625 385.5859375 391.012695312 434.258789062 391.012695312 485.463867188 c 0
 391.012695312 488.1015625 391.008789062 490.739257812 391 493.375 c 1
 501.541992188 493.375 l 1
 501.541992188 493.5 505.708007812 542.416992188 483 542.166992188 c 2
 291.875 542.166992188 l 1
 299.375 570.333007812 308.916992188 599.666992188 320.208007812 630.083007812 c 1
544.916992188 550 m 1
 544.916992188 77.9169921875 l 1
 595.708007812 77.9169921875 l 1
 612.416992188 20.7080078125 l 1
 703.416992188 77.9169921875 l 1
 810.625 77.9169921875 l 1
 810.625 550 l 1
 544.916992188 550 l 1
599.625 499.208007812 m 1
 757.833007812 499.25 l 1
 757.833007812 130.083007812 l 1
 697.166992188 130.083007812 l 1
 636.541992188 91 l 1
 625.583007812 130.041992188 l 1
 599.625 130.041992188 l 1
 599.625 499.208007812 l 1
EndSplineSet
Validated: 524321
EndChar
